G04 start of page 10 for group -4015 idx -4015 *
G04 Title: (unknown), toppaste *
G04 Creator: pcb 20140316 *
G04 CreationDate: Sun 30 Dec 2018 08:06:51 PM GMT UTC *
G04 For: railfan *
G04 Format: Gerber/RS-274X *
G04 PCB-Dimensions (mil): 2200.00 1600.00 *
G04 PCB-Coordinate-Origin: lower left *
%MOIN*%
%FSLAX25Y25*%
%LNTOPPASTE*%
%ADD87R,0.0167X0.0167*%
%ADD86C,0.0001*%
%ADD85R,0.0512X0.0512*%
%ADD84R,0.0300X0.0300*%
%ADD83C,0.0600*%
%ADD82R,0.0787X0.0787*%
%ADD81R,0.0098X0.0098*%
%ADD80R,0.0472X0.0472*%
%ADD79R,0.0236X0.0236*%
G54D79*X75906Y131870D02*Y128130D01*
X71969Y131870D02*Y128130D01*
X68031Y131870D02*Y128130D01*
X64094Y131870D02*Y128130D01*
G54D80*X81024Y146437D02*Y144075D01*
X58976Y146437D02*Y144075D01*
G54D79*X155906Y131870D02*Y128130D01*
X151969Y131870D02*Y128130D01*
X148031Y131870D02*Y128130D01*
X144094Y131870D02*Y128130D01*
G54D80*X161024Y146437D02*Y144075D01*
X138976Y146437D02*Y144075D01*
G54D81*X116594Y78142D02*X118366D01*
X116594Y80110D02*X118366D01*
X116594Y82079D02*X118366D01*
X116594Y84047D02*X118366D01*
X116594Y86016D02*X118366D01*
X116594Y87984D02*X118366D01*
X116594Y89953D02*X118366D01*
X116594Y91921D02*X118366D01*
X116594Y93890D02*X118366D01*
X116594Y95858D02*X118366D01*
X114921Y99303D02*Y97531D01*
X112953Y99303D02*Y97531D01*
X110984Y99303D02*Y97531D01*
X109016Y99303D02*Y97531D01*
X107047Y99303D02*Y97531D01*
X105079Y99303D02*Y97531D01*
X101634Y95858D02*X103406D01*
X101634Y93890D02*X103406D01*
X101634Y91921D02*X103406D01*
X101634Y89953D02*X103406D01*
X101634Y87984D02*X103406D01*
X101634Y86016D02*X103406D01*
X101634Y84047D02*X103406D01*
X101634Y82079D02*X103406D01*
X101634Y80110D02*X103406D01*
X101634Y78142D02*X103406D01*
X105079Y76469D02*Y74697D01*
X107047Y76469D02*Y74697D01*
X109016Y76469D02*Y74697D01*
X110984Y76469D02*Y74697D01*
X112953Y76469D02*Y74697D01*
X114921Y76469D02*Y74697D01*
G54D80*X107835Y92906D02*X112165D01*
G54D82*X120909Y22000D02*X136657D01*
X156343D02*X172091D01*
G54D83*X111500Y23400D03*
G54D84*X110000Y21900D02*X113000D01*
G54D83*X111500Y16600D03*
G54D84*X110000Y18100D02*X113000D01*
G54D85*X133607Y45543D02*X134393D01*
X133607Y38457D02*X134393D01*
X142607Y45543D02*X143393D01*
X142607Y38457D02*X143393D01*
X91957Y56893D02*Y56107D01*
X99043Y56893D02*Y56107D01*
X100607Y45543D02*X101393D01*
X100607Y38457D02*X101393D01*
X89607Y45543D02*X90393D01*
X89607Y38457D02*X90393D01*
X90607Y26543D02*X91393D01*
X90607Y19457D02*X91393D01*
X99607Y26543D02*X100393D01*
X99607Y19457D02*X100393D01*
X109607Y42914D02*X110393D01*
X109607Y50000D02*X110393D01*
X118607Y42914D02*X119393D01*
X118607Y50000D02*X119393D01*
X110957Y58893D02*Y58107D01*
X118043Y58893D02*Y58107D01*
X106107Y115457D02*X106893D01*
X106107Y122543D02*X106893D01*
X115107Y115457D02*X115893D01*
X115107Y122543D02*X115893D01*
X97107Y115457D02*X97893D01*
X97107Y122543D02*X97893D01*
G54D86*G36*
X90109Y103717D02*X94283Y107891D01*
X97902Y104272D01*
X93728Y100098D01*
X90109Y103717D01*
G37*
G36*
X85098Y108728D02*X89272Y112902D01*
X92891Y109283D01*
X88717Y105109D01*
X85098Y108728D01*
G37*
G54D87*X169425Y124087D02*Y122217D01*
X172575Y124087D02*Y122217D01*
Y130783D02*Y128913D01*
X169425Y130783D02*Y128913D01*
M02*
