M48
INCH
T52C0.012
T51C0.048
T50C0.101
T49C0.129
T48C0.038
%
T52
X007950Y013000
X008450Y011100
X008700Y011350
X009000Y003350
X010100Y003350
X010200Y012250
X010650Y002700
X011000Y003850
X011100Y012250
X011450Y003850
X011900Y003850
X012150Y009389
X012400Y009650
X012600Y013400
X012600Y012500
X012850Y010089
X013000Y013100
X013000Y012500
X013100Y010350
X013400Y012500
X013400Y003400
X013800Y012350
X013850Y003400
X014300Y003400
X015591Y013500
X016850Y013700
X017350Y013700
T48
X010000Y013700
X011000Y013800
X012000Y013700
T51
X005450Y003100
X007450Y003100
T50
X002700Y010435
X002700Y006185
X004750Y010435
X004750Y006185
X006800Y010435
X006800Y006185
X015200Y010435
X015200Y006185
X017250Y010435
X017250Y006185
X019300Y010435
X019300Y006185
T49
X002700Y013300
X002700Y002700
X019300Y013300
X019300Y002700
M30
