G04 start of page 12 for group -3984 idx -3984 *
G04 Title: (unknown), fab *
G04 Creator: pcb 20140316 *
G04 CreationDate: Sun 30 Dec 2018 08:06:51 PM GMT UTC *
G04 For: railfan *
G04 Format: Gerber/RS-274X *
G04 PCB-Dimensions (mil): 2200.00 1600.00 *
G04 PCB-Coordinate-Origin: lower left *
%MOIN*%
%FSLAX25Y25*%
%LNFAB*%
%ADD92C,0.0100*%
%ADD91C,0.0060*%
%ADD90R,0.0080X0.0080*%
G54D90*X191400Y28600D02*X194600D01*
X191400D02*Y25400D01*
X194600D01*
Y28600D02*Y25400D01*
X25400Y28600D02*X28600D01*
X25400D02*Y25400D01*
X28600D01*
Y28600D02*Y25400D01*
X25400Y134600D02*X28600D01*
X25400D02*Y131400D01*
X28600D01*
Y134600D02*Y131400D01*
X191400Y134600D02*X194600D01*
X191400D02*Y131400D01*
X194600D01*
Y134600D02*Y131400D01*
X13400Y172850D02*X16600D01*
X13400D02*Y169650D01*
X16600D01*
Y172850D02*Y169650D01*
G54D91*X135000Y173500D02*Y172750D01*
X136500Y171250D01*
X138000Y172750D01*
Y173500D02*Y172750D01*
X136500Y171250D02*Y167500D01*
X139800Y170500D02*X142050D01*
X139800Y167500D02*X142800D01*
X139800Y173500D02*Y167500D01*
Y173500D02*X142800D01*
X147600D02*X148350Y172750D01*
X145350Y173500D02*X147600D01*
X144600Y172750D02*X145350Y173500D01*
X144600Y172750D02*Y171250D01*
X145350Y170500D01*
X147600D01*
X148350Y169750D01*
Y168250D01*
X147600Y167500D02*X148350Y168250D01*
X145350Y167500D02*X147600D01*
X144600Y168250D02*X145350Y167500D01*
X98000Y170500D02*X101000Y173500D01*
X98000Y170500D02*X101750D01*
X101000Y173500D02*Y167500D01*
X45000Y168250D02*X45750Y167500D01*
X45000Y172750D02*Y168250D01*
Y172750D02*X45750Y173500D01*
X47250D01*
X48000Y172750D01*
Y168250D01*
X47250Y167500D02*X48000Y168250D01*
X45750Y167500D02*X47250D01*
X45000Y169000D02*X48000Y172000D01*
X49800Y167500D02*X50550D01*
X53100D02*X54600D01*
X53850Y173500D02*Y167500D01*
X52350Y172000D02*X53850Y173500D01*
X56400Y172750D02*X57150Y173500D01*
X59400D01*
X60150Y172750D01*
Y171250D01*
X56400Y167500D02*X60150Y171250D01*
X56400Y167500D02*X60150D01*
X61950D02*X64950Y170500D01*
Y172750D02*Y170500D01*
X64200Y173500D02*X64950Y172750D01*
X62700Y173500D02*X64200D01*
X61950Y172750D02*X62700Y173500D01*
X61950Y172750D02*Y171250D01*
X62700Y170500D01*
X64950D01*
X67200Y61850D02*G75*G03X68800Y61850I800J0D01*G01*
G75*G03X67200Y61850I-800J0D01*G01*
X46700D02*G75*G03X48300Y61850I800J0D01*G01*
G75*G03X46700Y61850I-800J0D01*G01*
X26200D02*G75*G03X27800Y61850I800J0D01*G01*
G75*G03X26200Y61850I-800J0D01*G01*
X67200Y104350D02*G75*G03X68800Y104350I800J0D01*G01*
G75*G03X67200Y104350I-800J0D01*G01*
X46700D02*G75*G03X48300Y104350I800J0D01*G01*
G75*G03X46700Y104350I-800J0D01*G01*
X26200D02*G75*G03X27800Y104350I800J0D01*G01*
G75*G03X26200Y104350I-800J0D01*G01*
X192200Y61850D02*G75*G03X193800Y61850I800J0D01*G01*
G75*G03X192200Y61850I-800J0D01*G01*
X171700D02*G75*G03X173300Y61850I800J0D01*G01*
G75*G03X171700Y61850I-800J0D01*G01*
X151200D02*G75*G03X152800Y61850I800J0D01*G01*
G75*G03X151200Y61850I-800J0D01*G01*
X192200Y104350D02*G75*G03X193800Y104350I800J0D01*G01*
G75*G03X192200Y104350I-800J0D01*G01*
X171700D02*G75*G03X173300Y104350I800J0D01*G01*
G75*G03X171700Y104350I-800J0D01*G01*
X151200D02*G75*G03X152800Y104350I800J0D01*G01*
G75*G03X151200Y104350I-800J0D01*G01*
X14200Y186250D02*G75*G03X15800Y186250I800J0D01*G01*
G75*G03X14200Y186250I-800J0D01*G01*
X135000Y188500D02*Y187750D01*
X136500Y186250D01*
X138000Y187750D01*
Y188500D02*Y187750D01*
X136500Y186250D02*Y182500D01*
X139800Y185500D02*X142050D01*
X139800Y182500D02*X142800D01*
X139800Y188500D02*Y182500D01*
Y188500D02*X142800D01*
X147600D02*X148350Y187750D01*
X145350Y188500D02*X147600D01*
X144600Y187750D02*X145350Y188500D01*
X144600Y187750D02*Y186250D01*
X145350Y185500D01*
X147600D01*
X148350Y184750D01*
Y183250D01*
X147600Y182500D02*X148350Y183250D01*
X145350Y182500D02*X147600D01*
X144600Y183250D02*X145350Y182500D01*
X98750D02*X100250D01*
X99500Y188500D02*Y182500D01*
X98000Y187000D02*X99500Y188500D01*
X102050Y187750D02*X102800Y188500D01*
X105050D01*
X105800Y187750D01*
Y186250D01*
X102050Y182500D02*X105800Y186250D01*
X102050Y182500D02*X105800D01*
X45000Y183250D02*X45750Y182500D01*
X45000Y187750D02*Y183250D01*
Y187750D02*X45750Y188500D01*
X47250D01*
X48000Y187750D01*
Y183250D01*
X47250Y182500D02*X48000Y183250D01*
X45750Y182500D02*X47250D01*
X45000Y184000D02*X48000Y187000D01*
X49800Y182500D02*X50550D01*
X53100D02*X54600D01*
X53850Y188500D02*Y182500D01*
X52350Y187000D02*X53850Y188500D01*
X56400Y183250D02*X57150Y182500D01*
X56400Y187750D02*Y183250D01*
Y187750D02*X57150Y188500D01*
X58650D01*
X59400Y187750D01*
Y183250D01*
X58650Y182500D02*X59400Y183250D01*
X57150Y182500D02*X58650D01*
X56400Y184000D02*X59400Y187000D01*
X61950Y182500D02*X63450D01*
X62700Y188500D02*Y182500D01*
X61200Y187000D02*X62700Y188500D01*
X53300Y32200D02*X55700Y29800D01*
X53300D02*X55700Y32200D01*
X73300D02*X75700Y29800D01*
X73300D02*X75700Y32200D01*
X13800Y202450D02*X16200Y200050D01*
X13800D02*X16200Y202450D01*
X135000Y203500D02*Y202750D01*
X136500Y201250D01*
X138000Y202750D01*
Y203500D02*Y202750D01*
X136500Y201250D02*Y197500D01*
X139800Y200500D02*X142050D01*
X139800Y197500D02*X142800D01*
X139800Y203500D02*Y197500D01*
Y203500D02*X142800D01*
X147600D02*X148350Y202750D01*
X145350Y203500D02*X147600D01*
X144600Y202750D02*X145350Y203500D01*
X144600Y202750D02*Y201250D01*
X145350Y200500D01*
X147600D01*
X148350Y199750D01*
Y198250D01*
X147600Y197500D02*X148350Y198250D01*
X145350Y197500D02*X147600D01*
X144600Y198250D02*X145350Y197500D01*
X98000Y202750D02*X98750Y203500D01*
X101000D01*
X101750Y202750D01*
Y201250D01*
X98000Y197500D02*X101750Y201250D01*
X98000Y197500D02*X101750D01*
X45000Y198250D02*X45750Y197500D01*
X45000Y202750D02*Y198250D01*
Y202750D02*X45750Y203500D01*
X47250D01*
X48000Y202750D01*
Y198250D01*
X47250Y197500D02*X48000Y198250D01*
X45750Y197500D02*X47250D01*
X45000Y199000D02*X48000Y202000D01*
X49800Y197500D02*X50550D01*
X52350Y198250D02*X53100Y197500D01*
X52350Y202750D02*Y198250D01*
Y202750D02*X53100Y203500D01*
X54600D01*
X55350Y202750D01*
Y198250D01*
X54600Y197500D02*X55350Y198250D01*
X53100Y197500D02*X54600D01*
X52350Y199000D02*X55350Y202000D01*
X57150Y200500D02*X60150Y203500D01*
X57150Y200500D02*X60900D01*
X60150Y203500D02*Y197500D01*
X62700Y198250D02*X63450Y197500D01*
X62700Y199750D02*Y198250D01*
Y199750D02*X63450Y200500D01*
X64950D01*
X65700Y199750D01*
Y198250D01*
X64950Y197500D02*X65700Y198250D01*
X63450Y197500D02*X64950D01*
X62700Y201250D02*X63450Y200500D01*
X62700Y202750D02*Y201250D01*
Y202750D02*X63450Y203500D01*
X64950D01*
X65700Y202750D01*
Y201250D01*
X64950Y200500D02*X65700Y201250D01*
X100000Y138600D02*Y135400D01*
X98400Y137000D02*X101600D01*
X110000Y139600D02*Y136400D01*
X108400Y138000D02*X111600D01*
X120000Y138600D02*Y135400D01*
X118400Y137000D02*X121600D01*
X15000Y217850D02*Y214650D01*
X13400Y216250D02*X16600D01*
X135000Y218500D02*Y217750D01*
X136500Y216250D01*
X138000Y217750D01*
Y218500D02*Y217750D01*
X136500Y216250D02*Y212500D01*
X139800Y215500D02*X142050D01*
X139800Y212500D02*X142800D01*
X139800Y218500D02*Y212500D01*
Y218500D02*X142800D01*
X147600D02*X148350Y217750D01*
X145350Y218500D02*X147600D01*
X144600Y217750D02*X145350Y218500D01*
X144600Y217750D02*Y216250D01*
X145350Y215500D01*
X147600D01*
X148350Y214750D01*
Y213250D01*
X147600Y212500D02*X148350Y213250D01*
X145350Y212500D02*X147600D01*
X144600Y213250D02*X145350Y212500D01*
X98000Y217750D02*X98750Y218500D01*
X100250D01*
X101000Y217750D01*
Y213250D01*
X100250Y212500D02*X101000Y213250D01*
X98750Y212500D02*X100250D01*
X98000Y213250D02*X98750Y212500D01*
Y215500D02*X101000D01*
X45000Y213250D02*X45750Y212500D01*
X45000Y217750D02*Y213250D01*
Y217750D02*X45750Y218500D01*
X47250D01*
X48000Y217750D01*
Y213250D01*
X47250Y212500D02*X48000Y213250D01*
X45750Y212500D02*X47250D01*
X45000Y214000D02*X48000Y217000D01*
X49800Y212500D02*X50550D01*
X52350Y213250D02*X53100Y212500D01*
X52350Y217750D02*Y213250D01*
Y217750D02*X53100Y218500D01*
X54600D01*
X55350Y217750D01*
Y213250D01*
X54600Y212500D02*X55350Y213250D01*
X53100Y212500D02*X54600D01*
X52350Y214000D02*X55350Y217000D01*
X57150Y217750D02*X57900Y218500D01*
X59400D01*
X60150Y217750D01*
Y213250D01*
X59400Y212500D02*X60150Y213250D01*
X57900Y212500D02*X59400D01*
X57150Y213250D02*X57900Y212500D01*
Y215500D02*X60150D01*
X61950Y213250D02*X62700Y212500D01*
X61950Y214750D02*Y213250D01*
Y214750D02*X62700Y215500D01*
X64200D01*
X64950Y214750D01*
Y213250D01*
X64200Y212500D02*X64950Y213250D01*
X62700Y212500D02*X64200D01*
X61950Y216250D02*X62700Y215500D01*
X61950Y217750D02*Y216250D01*
Y217750D02*X62700Y218500D01*
X64200D01*
X64950Y217750D01*
Y216250D01*
X64200Y215500D02*X64950Y216250D01*
X134000Y125000D02*Y123400D01*
Y125000D02*X135387Y125800D01*
X134000Y125000D02*X132613Y125800D01*
X126000Y134000D02*Y132400D01*
Y134000D02*X127387Y134800D01*
X126000Y134000D02*X124613Y134800D01*
X126000Y125000D02*Y123400D01*
Y125000D02*X127387Y125800D01*
X126000Y125000D02*X124613Y125800D01*
X130000Y125000D02*Y123400D01*
Y125000D02*X131387Y125800D01*
X130000Y125000D02*X128613Y125800D01*
X130000Y131000D02*Y129400D01*
Y131000D02*X131387Y131800D01*
X130000Y131000D02*X128613Y131800D01*
X79500Y130000D02*Y128400D01*
Y130000D02*X80887Y130800D01*
X79500Y130000D02*X78113Y130800D01*
X124000Y96500D02*Y94900D01*
Y96500D02*X125387Y97300D01*
X124000Y96500D02*X122613Y97300D01*
X121500Y93890D02*Y92290D01*
Y93890D02*X122887Y94690D01*
X121500Y93890D02*X120113Y94690D01*
X138500Y34000D02*Y32400D01*
Y34000D02*X139887Y34800D01*
X138500Y34000D02*X137113Y34800D01*
X134000Y34000D02*Y32400D01*
Y34000D02*X135387Y34800D01*
X134000Y34000D02*X132613Y34800D01*
X143000Y34000D02*Y32400D01*
Y34000D02*X144387Y34800D01*
X143000Y34000D02*X141613Y34800D01*
X106500Y27000D02*Y25400D01*
Y27000D02*X107887Y27800D01*
X106500Y27000D02*X105113Y27800D01*
X138000Y123500D02*Y121900D01*
Y123500D02*X139387Y124300D01*
X138000Y123500D02*X136613Y124300D01*
X90000Y33500D02*Y31900D01*
Y33500D02*X91387Y34300D01*
X90000Y33500D02*X88613Y34300D01*
X101000Y33500D02*Y31900D01*
Y33500D02*X102387Y34300D01*
X101000Y33500D02*X99613Y34300D01*
X119000Y38500D02*Y36900D01*
Y38500D02*X120387Y39300D01*
X119000Y38500D02*X117613Y39300D01*
X110000Y38500D02*Y36900D01*
Y38500D02*X111387Y39300D01*
X110000Y38500D02*X108613Y39300D01*
X114500Y38500D02*Y36900D01*
Y38500D02*X115887Y39300D01*
X114500Y38500D02*X113113Y39300D01*
X111000Y122500D02*Y120900D01*
Y122500D02*X112387Y123300D01*
X111000Y122500D02*X109613Y123300D01*
X102000Y122500D02*Y120900D01*
Y122500D02*X103387Y123300D01*
X102000Y122500D02*X100613Y123300D01*
X84500Y111000D02*Y109400D01*
Y111000D02*X85887Y111800D01*
X84500Y111000D02*X83113Y111800D01*
X87000Y113500D02*Y111900D01*
Y113500D02*X88387Y114300D01*
X87000Y113500D02*X85613Y114300D01*
X128500Y100890D02*Y99290D01*
Y100890D02*X129887Y101690D01*
X128500Y100890D02*X127113Y101690D01*
X131000Y103500D02*Y101900D01*
Y103500D02*X132387Y104300D01*
X131000Y103500D02*X129613Y104300D01*
X155906Y135000D02*Y133400D01*
Y135000D02*X157292Y135800D01*
X155906Y135000D02*X154519Y135800D01*
X168500Y137000D02*Y135400D01*
Y137000D02*X169887Y137800D01*
X168500Y137000D02*X167113Y137800D01*
X173500Y137000D02*Y135400D01*
Y137000D02*X174887Y137800D01*
X173500Y137000D02*X172113Y137800D01*
X15000Y231250D02*Y229650D01*
Y231250D02*X16387Y232050D01*
X15000Y231250D02*X13613Y232050D01*
X135000Y233500D02*Y232750D01*
X136500Y231250D01*
X138000Y232750D01*
Y233500D02*Y232750D01*
X136500Y231250D02*Y227500D01*
X139800Y230500D02*X142050D01*
X139800Y227500D02*X142800D01*
X139800Y233500D02*Y227500D01*
Y233500D02*X142800D01*
X147600D02*X148350Y232750D01*
X145350Y233500D02*X147600D01*
X144600Y232750D02*X145350Y233500D01*
X144600Y232750D02*Y231250D01*
X145350Y230500D01*
X147600D01*
X148350Y229750D01*
Y228250D01*
X147600Y227500D02*X148350Y228250D01*
X145350Y227500D02*X147600D01*
X144600Y228250D02*X145350Y227500D01*
X98000Y232750D02*X98750Y233500D01*
X101000D01*
X101750Y232750D01*
Y231250D01*
X98000Y227500D02*X101750Y231250D01*
X98000Y227500D02*X101750D01*
X103550D02*X107300Y231250D01*
Y233500D02*Y231250D01*
X103550Y233500D02*X107300D01*
X45000Y228250D02*X45750Y227500D01*
X45000Y232750D02*Y228250D01*
Y232750D02*X45750Y233500D01*
X47250D01*
X48000Y232750D01*
Y228250D01*
X47250Y227500D02*X48000Y228250D01*
X45750Y227500D02*X47250D01*
X45000Y229000D02*X48000Y232000D01*
X49800Y227500D02*X50550D01*
X52350Y228250D02*X53100Y227500D01*
X52350Y232750D02*Y228250D01*
Y232750D02*X53100Y233500D01*
X54600D01*
X55350Y232750D01*
Y228250D01*
X54600Y227500D02*X55350Y228250D01*
X53100Y227500D02*X54600D01*
X52350Y229000D02*X55350Y232000D01*
X57900Y227500D02*X59400D01*
X58650Y233500D02*Y227500D01*
X57150Y232000D02*X58650Y233500D01*
X61200Y232750D02*X61950Y233500D01*
X64200D01*
X64950Y232750D01*
Y231250D01*
X61200Y227500D02*X64950Y231250D01*
X61200Y227500D02*X64950D01*
X3000Y248500D02*X3750Y247750D01*
X750Y248500D02*X3000D01*
X0Y247750D02*X750Y248500D01*
X0Y247750D02*Y246250D01*
X750Y245500D01*
X3000D01*
X3750Y244750D01*
Y243250D01*
X3000Y242500D02*X3750Y243250D01*
X750Y242500D02*X3000D01*
X0Y243250D02*X750Y242500D01*
X5550Y245500D02*Y243250D01*
X6300Y242500D01*
X8550Y245500D02*Y241000D01*
X7800Y240250D02*X8550Y241000D01*
X6300Y240250D02*X7800D01*
X5550Y241000D02*X6300Y240250D01*
Y242500D02*X7800D01*
X8550Y243250D01*
X11100Y244750D02*Y242500D01*
Y244750D02*X11850Y245500D01*
X12600D01*
X13350Y244750D01*
Y242500D01*
Y244750D02*X14100Y245500D01*
X14850D01*
X15600Y244750D01*
Y242500D01*
X10350Y245500D02*X11100Y244750D01*
X17400Y248500D02*Y242500D01*
Y243250D02*X18150Y242500D01*
X19650D01*
X20400Y243250D01*
Y244750D02*Y243250D01*
X19650Y245500D02*X20400Y244750D01*
X18150Y245500D02*X19650D01*
X17400Y244750D02*X18150Y245500D01*
X22200Y244750D02*Y243250D01*
Y244750D02*X22950Y245500D01*
X24450D01*
X25200Y244750D01*
Y243250D01*
X24450Y242500D02*X25200Y243250D01*
X22950Y242500D02*X24450D01*
X22200Y243250D02*X22950Y242500D01*
X27000Y248500D02*Y243250D01*
X27750Y242500D01*
X0Y239250D02*X29250D01*
X41750Y248500D02*Y242500D01*
X44000Y248500D02*X44750Y247750D01*
Y243250D01*
X44000Y242500D02*X44750Y243250D01*
X41000Y242500D02*X44000D01*
X41000Y248500D02*X44000D01*
X46550Y247000D02*Y246250D01*
Y244750D02*Y242500D01*
X50300Y245500D02*X51050Y244750D01*
X48800Y245500D02*X50300D01*
X48050Y244750D02*X48800Y245500D01*
X48050Y244750D02*Y243250D01*
X48800Y242500D01*
X51050Y245500D02*Y243250D01*
X51800Y242500D01*
X48800D02*X50300D01*
X51050Y243250D01*
X54350Y244750D02*Y242500D01*
Y244750D02*X55100Y245500D01*
X55850D01*
X56600Y244750D01*
Y242500D01*
Y244750D02*X57350Y245500D01*
X58100D01*
X58850Y244750D01*
Y242500D01*
X53600Y245500D02*X54350Y244750D01*
X60650Y242500D02*X61400D01*
X65900Y243250D02*X66650Y242500D01*
X65900Y247750D02*X66650Y248500D01*
X65900Y247750D02*Y243250D01*
X68450Y248500D02*X69950D01*
X69200D02*Y242500D01*
X68450D02*X69950D01*
X72500Y244750D02*Y242500D01*
Y244750D02*X73250Y245500D01*
X74000D01*
X74750Y244750D01*
Y242500D01*
X71750Y245500D02*X72500Y244750D01*
X77300Y245500D02*X79550D01*
X76550Y244750D02*X77300Y245500D01*
X76550Y244750D02*Y243250D01*
X77300Y242500D01*
X79550D01*
X81350Y248500D02*Y242500D01*
Y244750D02*X82100Y245500D01*
X83600D01*
X84350Y244750D01*
Y242500D01*
X86150Y248500D02*X86900Y247750D01*
Y243250D01*
X86150Y242500D02*X86900Y243250D01*
X41000Y239250D02*X88700D01*
X95750Y242500D02*X98000D01*
X95000Y243250D02*X95750Y242500D01*
X95000Y247750D02*Y243250D01*
Y247750D02*X95750Y248500D01*
X98000D01*
X99800Y244750D02*Y243250D01*
Y244750D02*X100550Y245500D01*
X102050D01*
X102800Y244750D01*
Y243250D01*
X102050Y242500D02*X102800Y243250D01*
X100550Y242500D02*X102050D01*
X99800Y243250D02*X100550Y242500D01*
X104600Y245500D02*Y243250D01*
X105350Y242500D01*
X106850D01*
X107600Y243250D01*
Y245500D02*Y243250D01*
X110150Y244750D02*Y242500D01*
Y244750D02*X110900Y245500D01*
X111650D01*
X112400Y244750D01*
Y242500D01*
X109400Y245500D02*X110150Y244750D01*
X114950Y248500D02*Y243250D01*
X115700Y242500D01*
X114200Y246250D02*X115700D01*
X95000Y239250D02*X117200D01*
X130750Y248500D02*Y242500D01*
X130000Y248500D02*X133000D01*
X133750Y247750D01*
Y246250D01*
X133000Y245500D02*X133750Y246250D01*
X130750Y245500D02*X133000D01*
X135550Y248500D02*Y243250D01*
X136300Y242500D01*
X140050Y245500D02*X140800Y244750D01*
X138550Y245500D02*X140050D01*
X137800Y244750D02*X138550Y245500D01*
X137800Y244750D02*Y243250D01*
X138550Y242500D01*
X140800Y245500D02*Y243250D01*
X141550Y242500D01*
X138550D02*X140050D01*
X140800Y243250D01*
X144100Y248500D02*Y243250D01*
X144850Y242500D01*
X143350Y246250D02*X144850D01*
X147100Y242500D02*X149350D01*
X146350Y243250D02*X147100Y242500D01*
X146350Y244750D02*Y243250D01*
Y244750D02*X147100Y245500D01*
X148600D01*
X149350Y244750D01*
X146350Y244000D02*X149350D01*
Y244750D02*Y244000D01*
X154150Y248500D02*Y242500D01*
X153400D02*X154150Y243250D01*
X151900Y242500D02*X153400D01*
X151150Y243250D02*X151900Y242500D01*
X151150Y244750D02*Y243250D01*
Y244750D02*X151900Y245500D01*
X153400D01*
X154150Y244750D01*
X157450Y245500D02*Y244750D01*
Y243250D02*Y242500D01*
X155950Y247750D02*Y247000D01*
Y247750D02*X156700Y248500D01*
X158200D01*
X158950Y247750D01*
Y247000D01*
X157450Y245500D02*X158950Y247000D01*
X130000Y239250D02*X160750D01*
X0Y263500D02*X3000D01*
X1500D02*Y257500D01*
X4800Y263500D02*Y257500D01*
Y259750D02*X5550Y260500D01*
X7050D01*
X7800Y259750D01*
Y257500D01*
X10350D02*X12600D01*
X9600Y258250D02*X10350Y257500D01*
X9600Y259750D02*Y258250D01*
Y259750D02*X10350Y260500D01*
X11850D01*
X12600Y259750D01*
X9600Y259000D02*X12600D01*
Y259750D02*Y259000D01*
X15150Y259750D02*Y257500D01*
Y259750D02*X15900Y260500D01*
X17400D01*
X14400D02*X15150Y259750D01*
X19950Y257500D02*X22200D01*
X19200Y258250D02*X19950Y257500D01*
X19200Y259750D02*Y258250D01*
Y259750D02*X19950Y260500D01*
X21450D01*
X22200Y259750D01*
X19200Y259000D02*X22200D01*
Y259750D02*Y259000D01*
X28950Y260500D02*X29700Y259750D01*
X27450Y260500D02*X28950D01*
X26700Y259750D02*X27450Y260500D01*
X26700Y259750D02*Y258250D01*
X27450Y257500D01*
X29700Y260500D02*Y258250D01*
X30450Y257500D01*
X27450D02*X28950D01*
X29700Y258250D01*
X33000Y259750D02*Y257500D01*
Y259750D02*X33750Y260500D01*
X35250D01*
X32250D02*X33000Y259750D01*
X37800Y257500D02*X40050D01*
X37050Y258250D02*X37800Y257500D01*
X37050Y259750D02*Y258250D01*
Y259750D02*X37800Y260500D01*
X39300D01*
X40050Y259750D01*
X37050Y259000D02*X40050D01*
Y259750D02*Y259000D01*
X44550Y263500D02*X47550D01*
X44550D02*Y260500D01*
X45300Y261250D01*
X46800D01*
X47550Y260500D01*
Y258250D01*
X46800Y257500D02*X47550Y258250D01*
X45300Y257500D02*X46800D01*
X44550Y258250D02*X45300Y257500D01*
X55050Y263500D02*Y257500D01*
X54300D02*X55050Y258250D01*
X52800Y257500D02*X54300D01*
X52050Y258250D02*X52800Y257500D01*
X52050Y259750D02*Y258250D01*
Y259750D02*X52800Y260500D01*
X54300D01*
X55050Y259750D01*
X56850Y262000D02*Y261250D01*
Y259750D02*Y257500D01*
X59100Y262750D02*Y257500D01*
Y262750D02*X59850Y263500D01*
X60600D01*
X58350Y260500D02*X59850D01*
X62850Y262750D02*Y257500D01*
Y262750D02*X63600Y263500D01*
X64350D01*
X62100Y260500D02*X63600D01*
X66600Y257500D02*X68850D01*
X65850Y258250D02*X66600Y257500D01*
X65850Y259750D02*Y258250D01*
Y259750D02*X66600Y260500D01*
X68100D01*
X68850Y259750D01*
X65850Y259000D02*X68850D01*
Y259750D02*Y259000D01*
X71400Y259750D02*Y257500D01*
Y259750D02*X72150Y260500D01*
X73650D01*
X70650D02*X71400Y259750D01*
X76200Y257500D02*X78450D01*
X75450Y258250D02*X76200Y257500D01*
X75450Y259750D02*Y258250D01*
Y259750D02*X76200Y260500D01*
X77700D01*
X78450Y259750D01*
X75450Y259000D02*X78450D01*
Y259750D02*Y259000D01*
X81000Y259750D02*Y257500D01*
Y259750D02*X81750Y260500D01*
X82500D01*
X83250Y259750D01*
Y257500D01*
X80250Y260500D02*X81000Y259750D01*
X85800Y263500D02*Y258250D01*
X86550Y257500D01*
X85050Y261250D02*X86550D01*
X93750Y263500D02*Y257500D01*
X93000D02*X93750Y258250D01*
X91500Y257500D02*X93000D01*
X90750Y258250D02*X91500Y257500D01*
X90750Y259750D02*Y258250D01*
Y259750D02*X91500Y260500D01*
X93000D01*
X93750Y259750D01*
X96300D02*Y257500D01*
Y259750D02*X97050Y260500D01*
X98550D01*
X95550D02*X96300Y259750D01*
X100350Y262000D02*Y261250D01*
Y259750D02*Y257500D01*
X101850Y263500D02*Y258250D01*
X102600Y257500D01*
X104100Y263500D02*Y258250D01*
X104850Y257500D01*
X109800D02*X112050D01*
X112800Y258250D01*
X112050Y259000D02*X112800Y258250D01*
X109800Y259000D02*X112050D01*
X109050Y259750D02*X109800Y259000D01*
X109050Y259750D02*X109800Y260500D01*
X112050D01*
X112800Y259750D01*
X109050Y258250D02*X109800Y257500D01*
X114600Y262000D02*Y261250D01*
Y259750D02*Y257500D01*
X116100Y260500D02*X119100D01*
X116100Y257500D02*X119100Y260500D01*
X116100Y257500D02*X119100D01*
X121650D02*X123900D01*
X120900Y258250D02*X121650Y257500D01*
X120900Y259750D02*Y258250D01*
Y259750D02*X121650Y260500D01*
X123150D01*
X123900Y259750D01*
X120900Y259000D02*X123900D01*
Y259750D02*Y259000D01*
X126450Y257500D02*X128700D01*
X129450Y258250D01*
X128700Y259000D02*X129450Y258250D01*
X126450Y259000D02*X128700D01*
X125700Y259750D02*X126450Y259000D01*
X125700Y259750D02*X126450Y260500D01*
X128700D01*
X129450Y259750D01*
X125700Y258250D02*X126450Y257500D01*
X133950Y260500D02*Y258250D01*
X134700Y257500D01*
X136200D01*
X136950Y258250D01*
Y260500D02*Y258250D01*
X139500Y257500D02*X141750D01*
X142500Y258250D01*
X141750Y259000D02*X142500Y258250D01*
X139500Y259000D02*X141750D01*
X138750Y259750D02*X139500Y259000D01*
X138750Y259750D02*X139500Y260500D01*
X141750D01*
X142500Y259750D01*
X138750Y258250D02*X139500Y257500D01*
X145050D02*X147300D01*
X144300Y258250D02*X145050Y257500D01*
X144300Y259750D02*Y258250D01*
Y259750D02*X145050Y260500D01*
X146550D01*
X147300Y259750D01*
X144300Y259000D02*X147300D01*
Y259750D02*Y259000D01*
X152100Y263500D02*Y257500D01*
X151350D02*X152100Y258250D01*
X149850Y257500D02*X151350D01*
X149100Y258250D02*X149850Y257500D01*
X149100Y259750D02*Y258250D01*
Y259750D02*X149850Y260500D01*
X151350D01*
X152100Y259750D01*
X156600Y262000D02*Y261250D01*
Y259750D02*Y257500D01*
X158850Y259750D02*Y257500D01*
Y259750D02*X159600Y260500D01*
X160350D01*
X161100Y259750D01*
Y257500D01*
X158100Y260500D02*X158850Y259750D01*
X166350Y263500D02*Y258250D01*
X167100Y257500D01*
X165600Y261250D02*X167100D01*
X168600Y263500D02*Y257500D01*
Y259750D02*X169350Y260500D01*
X170850D01*
X171600Y259750D01*
Y257500D01*
X173400Y262000D02*Y261250D01*
Y259750D02*Y257500D01*
X175650D02*X177900D01*
X178650Y258250D01*
X177900Y259000D02*X178650Y258250D01*
X175650Y259000D02*X177900D01*
X174900Y259750D02*X175650Y259000D01*
X174900Y259750D02*X175650Y260500D01*
X177900D01*
X178650Y259750D01*
X174900Y258250D02*X175650Y257500D01*
X183150Y263500D02*Y258250D01*
X183900Y257500D01*
X187650Y260500D02*X188400Y259750D01*
X186150Y260500D02*X187650D01*
X185400Y259750D02*X186150Y260500D01*
X185400Y259750D02*Y258250D01*
X186150Y257500D01*
X188400Y260500D02*Y258250D01*
X189150Y257500D01*
X186150D02*X187650D01*
X188400Y258250D01*
X190950Y260500D02*Y258250D01*
X191700Y257500D01*
X193950Y260500D02*Y256000D01*
X193200Y255250D02*X193950Y256000D01*
X191700Y255250D02*X193200D01*
X190950Y256000D02*X191700Y255250D01*
Y257500D02*X193200D01*
X193950Y258250D01*
X195750Y259750D02*Y258250D01*
Y259750D02*X196500Y260500D01*
X198000D01*
X198750Y259750D01*
Y258250D01*
X198000Y257500D02*X198750Y258250D01*
X196500Y257500D02*X198000D01*
X195750Y258250D02*X196500Y257500D01*
X200550Y260500D02*Y258250D01*
X201300Y257500D01*
X202800D01*
X203550Y258250D01*
Y260500D02*Y258250D01*
X206100Y263500D02*Y258250D01*
X206850Y257500D01*
X205350Y261250D02*X206850D01*
X208350Y256000D02*X209850Y257500D01*
X214350Y260500D02*X217350Y263500D01*
X214350Y260500D02*X218100D01*
X217350Y263500D02*Y257500D01*
X219900Y258250D02*X220650Y257500D01*
X219900Y259750D02*Y258250D01*
Y259750D02*X220650Y260500D01*
X222150D01*
X222900Y259750D01*
Y258250D01*
X222150Y257500D02*X222900Y258250D01*
X220650Y257500D02*X222150D01*
X219900Y261250D02*X220650Y260500D01*
X219900Y262750D02*Y261250D01*
Y262750D02*X220650Y263500D01*
X222150D01*
X222900Y262750D01*
Y261250D01*
X222150Y260500D02*X222900Y261250D01*
X227400Y263500D02*Y257500D01*
Y259750D02*X228150Y260500D01*
X229650D01*
X230400Y259750D01*
Y257500D01*
X232200Y259750D02*Y258250D01*
Y259750D02*X232950Y260500D01*
X234450D01*
X235200Y259750D01*
Y258250D01*
X234450Y257500D02*X235200Y258250D01*
X232950Y257500D02*X234450D01*
X232200Y258250D02*X232950Y257500D01*
X237000Y263500D02*Y258250D01*
X237750Y257500D01*
X240000D02*X242250D01*
X239250Y258250D02*X240000Y257500D01*
X239250Y259750D02*Y258250D01*
Y259750D02*X240000Y260500D01*
X241500D01*
X242250Y259750D01*
X239250Y259000D02*X242250D01*
Y259750D02*Y259000D01*
X244800Y257500D02*X247050D01*
X247800Y258250D01*
X247050Y259000D02*X247800Y258250D01*
X244800Y259000D02*X247050D01*
X244050Y259750D02*X244800Y259000D01*
X244050Y259750D02*X244800Y260500D01*
X247050D01*
X247800Y259750D01*
X244050Y258250D02*X244800Y257500D01*
X253050Y263500D02*Y258250D01*
X253800Y257500D01*
X252300Y261250D02*X253800D01*
X255300Y259750D02*Y258250D01*
Y259750D02*X256050Y260500D01*
X257550D01*
X258300Y259750D01*
Y258250D01*
X257550Y257500D02*X258300Y258250D01*
X256050Y257500D02*X257550D01*
X255300Y258250D02*X256050Y257500D01*
X260850Y263500D02*Y258250D01*
X261600Y257500D01*
X260100Y261250D02*X261600D01*
X265350Y260500D02*X266100Y259750D01*
X263850Y260500D02*X265350D01*
X263100Y259750D02*X263850Y260500D01*
X263100Y259750D02*Y258250D01*
X263850Y257500D01*
X266100Y260500D02*Y258250D01*
X266850Y257500D01*
X263850D02*X265350D01*
X266100Y258250D01*
X268650Y263500D02*Y258250D01*
X269400Y257500D01*
G54D92*X10000Y10000D02*Y150000D01*
X210000D02*Y10000D01*
X10000Y150000D02*X210000D01*
Y10000D02*X10000D01*
G54D91*X23675Y-9500D02*X26675D01*
X27425Y-8750D01*
Y-7250D02*Y-8750D01*
X26675Y-6500D02*X27425Y-7250D01*
X24425Y-6500D02*X26675D01*
X24425Y-3500D02*Y-9500D01*
X23675Y-3500D02*X26675D01*
X27425Y-4250D01*
Y-5750D01*
X26675Y-6500D02*X27425Y-5750D01*
X29225Y-7250D02*Y-8750D01*
Y-7250D02*X29975Y-6500D01*
X31475D01*
X32225Y-7250D01*
Y-8750D01*
X31475Y-9500D02*X32225Y-8750D01*
X29975Y-9500D02*X31475D01*
X29225Y-8750D02*X29975Y-9500D01*
X36275Y-6500D02*X37025Y-7250D01*
X34775Y-6500D02*X36275D01*
X34025Y-7250D02*X34775Y-6500D01*
X34025Y-7250D02*Y-8750D01*
X34775Y-9500D01*
X37025Y-6500D02*Y-8750D01*
X37775Y-9500D01*
X34775D02*X36275D01*
X37025Y-8750D01*
X40325Y-7250D02*Y-9500D01*
Y-7250D02*X41075Y-6500D01*
X42575D01*
X39575D02*X40325Y-7250D01*
X47375Y-3500D02*Y-9500D01*
X46625D02*X47375Y-8750D01*
X45125Y-9500D02*X46625D01*
X44375Y-8750D02*X45125Y-9500D01*
X44375Y-7250D02*Y-8750D01*
Y-7250D02*X45125Y-6500D01*
X46625D01*
X47375Y-7250D01*
X51875D02*Y-8750D01*
Y-7250D02*X52625Y-6500D01*
X54125D01*
X54875Y-7250D01*
Y-8750D01*
X54125Y-9500D02*X54875Y-8750D01*
X52625Y-9500D02*X54125D01*
X51875Y-8750D02*X52625Y-9500D01*
X56675Y-6500D02*Y-8750D01*
X57425Y-9500D01*
X58925D01*
X59675Y-8750D01*
Y-6500D02*Y-8750D01*
X62225Y-3500D02*Y-8750D01*
X62975Y-9500D01*
X61475Y-5750D02*X62975D01*
X64475Y-3500D02*Y-8750D01*
X65225Y-9500D01*
X66725Y-5000D02*Y-5750D01*
Y-7250D02*Y-9500D01*
X68975Y-7250D02*Y-9500D01*
Y-7250D02*X69725Y-6500D01*
X70475D01*
X71225Y-7250D01*
Y-9500D01*
X68225Y-6500D02*X68975Y-7250D01*
X73775Y-9500D02*X76025D01*
X73025Y-8750D02*X73775Y-9500D01*
X73025Y-7250D02*Y-8750D01*
Y-7250D02*X73775Y-6500D01*
X75275D01*
X76025Y-7250D01*
X73025Y-8000D02*X76025D01*
Y-7250D02*Y-8000D01*
X80525Y-5000D02*Y-5750D01*
Y-7250D02*Y-9500D01*
X82775D02*X85025D01*
X85775Y-8750D01*
X85025Y-8000D02*X85775Y-8750D01*
X82775Y-8000D02*X85025D01*
X82025Y-7250D02*X82775Y-8000D01*
X82025Y-7250D02*X82775Y-6500D01*
X85025D01*
X85775Y-7250D01*
X82025Y-8750D02*X82775Y-9500D01*
X91025Y-3500D02*Y-8750D01*
X91775Y-9500D01*
X90275Y-5750D02*X91775D01*
X93275Y-3500D02*Y-9500D01*
Y-7250D02*X94025Y-6500D01*
X95525D01*
X96275Y-7250D01*
Y-9500D01*
X98825D02*X101075D01*
X98075Y-8750D02*X98825Y-9500D01*
X98075Y-7250D02*Y-8750D01*
Y-7250D02*X98825Y-6500D01*
X100325D01*
X101075Y-7250D01*
X98075Y-8000D02*X101075D01*
Y-7250D02*Y-8000D01*
X106325Y-6500D02*X108575D01*
X105575Y-7250D02*X106325Y-6500D01*
X105575Y-7250D02*Y-8750D01*
X106325Y-9500D01*
X108575D01*
X111125D02*X113375D01*
X110375Y-8750D02*X111125Y-9500D01*
X110375Y-7250D02*Y-8750D01*
Y-7250D02*X111125Y-6500D01*
X112625D01*
X113375Y-7250D01*
X110375Y-8000D02*X113375D01*
Y-7250D02*Y-8000D01*
X115925Y-7250D02*Y-9500D01*
Y-7250D02*X116675Y-6500D01*
X117425D01*
X118175Y-7250D01*
Y-9500D01*
X115175Y-6500D02*X115925Y-7250D01*
X120725Y-3500D02*Y-8750D01*
X121475Y-9500D01*
X119975Y-5750D02*X121475D01*
X123725Y-9500D02*X125975D01*
X122975Y-8750D02*X123725Y-9500D01*
X122975Y-7250D02*Y-8750D01*
Y-7250D02*X123725Y-6500D01*
X125225D01*
X125975Y-7250D01*
X122975Y-8000D02*X125975D01*
Y-7250D02*Y-8000D01*
X128525Y-7250D02*Y-9500D01*
Y-7250D02*X129275Y-6500D01*
X130775D01*
X127775D02*X128525Y-7250D01*
X132575Y-3500D02*Y-8750D01*
X133325Y-9500D01*
X134825Y-5000D02*Y-5750D01*
Y-7250D02*Y-9500D01*
X137075Y-7250D02*Y-9500D01*
Y-7250D02*X137825Y-6500D01*
X138575D01*
X139325Y-7250D01*
Y-9500D01*
X136325Y-6500D02*X137075Y-7250D01*
X141875Y-9500D02*X144125D01*
X141125Y-8750D02*X141875Y-9500D01*
X141125Y-7250D02*Y-8750D01*
Y-7250D02*X141875Y-6500D01*
X143375D01*
X144125Y-7250D01*
X141125Y-8000D02*X144125D01*
Y-7250D02*Y-8000D01*
X148625Y-7250D02*Y-8750D01*
Y-7250D02*X149375Y-6500D01*
X150875D01*
X151625Y-7250D01*
Y-8750D01*
X150875Y-9500D02*X151625Y-8750D01*
X149375Y-9500D02*X150875D01*
X148625Y-8750D02*X149375Y-9500D01*
X154175Y-4250D02*Y-9500D01*
Y-4250D02*X154925Y-3500D01*
X155675D01*
X153425Y-6500D02*X154925D01*
X160625Y-3500D02*Y-8750D01*
X161375Y-9500D01*
X159875Y-5750D02*X161375D01*
X162875Y-3500D02*Y-9500D01*
Y-7250D02*X163625Y-6500D01*
X165125D01*
X165875Y-7250D01*
Y-9500D01*
X167675Y-5000D02*Y-5750D01*
Y-7250D02*Y-9500D01*
X169925D02*X172175D01*
X172925Y-8750D01*
X172175Y-8000D02*X172925Y-8750D01*
X169925Y-8000D02*X172175D01*
X169175Y-7250D02*X169925Y-8000D01*
X169175Y-7250D02*X169925Y-6500D01*
X172175D01*
X172925Y-7250D01*
X169175Y-8750D02*X169925Y-9500D01*
X178175Y-7250D02*Y-11750D01*
X177425Y-6500D02*X178175Y-7250D01*
X178925Y-6500D01*
X180425D01*
X181175Y-7250D01*
Y-8750D01*
X180425Y-9500D02*X181175Y-8750D01*
X178925Y-9500D02*X180425D01*
X178175Y-8750D02*X178925Y-9500D01*
X185225Y-6500D02*X185975Y-7250D01*
X183725Y-6500D02*X185225D01*
X182975Y-7250D02*X183725Y-6500D01*
X182975Y-7250D02*Y-8750D01*
X183725Y-9500D01*
X185975Y-6500D02*Y-8750D01*
X186725Y-9500D01*
X183725D02*X185225D01*
X185975Y-8750D01*
X189275Y-3500D02*Y-8750D01*
X190025Y-9500D01*
X188525Y-5750D02*X190025D01*
X191525Y-3500D02*Y-9500D01*
Y-7250D02*X192275Y-6500D01*
X193775D01*
X194525Y-7250D01*
Y-9500D01*
X200750Y188500D02*Y182500D01*
X203000Y188500D02*X203750Y187750D01*
Y183250D01*
X203000Y182500D02*X203750Y183250D01*
X200000Y182500D02*X203000D01*
X200000Y188500D02*X203000D01*
X207800Y185500D02*X208550Y184750D01*
X206300Y185500D02*X207800D01*
X205550Y184750D02*X206300Y185500D01*
X205550Y184750D02*Y183250D01*
X206300Y182500D01*
X208550Y185500D02*Y183250D01*
X209300Y182500D01*
X206300D02*X207800D01*
X208550Y183250D01*
X211850Y188500D02*Y183250D01*
X212600Y182500D01*
X211100Y186250D02*X212600D01*
X214850Y182500D02*X217100D01*
X214100Y183250D02*X214850Y182500D01*
X214100Y184750D02*Y183250D01*
Y184750D02*X214850Y185500D01*
X216350D01*
X217100Y184750D01*
X214100Y184000D02*X217100D01*
Y184750D02*Y184000D01*
X218900Y186250D02*X219650D01*
X218900Y184750D02*X219650D01*
X227150Y188500D02*X227900Y187750D01*
X224900Y188500D02*X227150D01*
X224150Y187750D02*X224900Y188500D01*
X224150Y187750D02*Y186250D01*
X224900Y185500D01*
X227150D01*
X227900Y184750D01*
Y183250D01*
X227150Y182500D02*X227900Y183250D01*
X224900Y182500D02*X227150D01*
X224150Y183250D02*X224900Y182500D01*
X229700Y185500D02*Y183250D01*
X230450Y182500D01*
X231950D01*
X232700Y183250D01*
Y185500D02*Y183250D01*
X235250Y184750D02*Y182500D01*
Y184750D02*X236000Y185500D01*
X236750D01*
X237500Y184750D01*
Y182500D01*
X234500Y185500D02*X235250Y184750D01*
X242000Y187750D02*X242750Y188500D01*
X244250D01*
X245000Y187750D01*
Y183250D01*
X244250Y182500D02*X245000Y183250D01*
X242750Y182500D02*X244250D01*
X242000Y183250D02*X242750Y182500D01*
Y185500D02*X245000D01*
X246800Y183250D02*X247550Y182500D01*
X246800Y187750D02*Y183250D01*
Y187750D02*X247550Y188500D01*
X249050D01*
X249800Y187750D01*
Y183250D01*
X249050Y182500D02*X249800Y183250D01*
X247550Y182500D02*X249050D01*
X246800Y184000D02*X249800Y187000D01*
X255050Y188500D02*Y182500D01*
X257300Y188500D02*X258050Y187750D01*
Y183250D01*
X257300Y182500D02*X258050Y183250D01*
X254300Y182500D02*X257300D01*
X254300Y188500D02*X257300D01*
X260600Y182500D02*X262850D01*
X259850Y183250D02*X260600Y182500D01*
X259850Y184750D02*Y183250D01*
Y184750D02*X260600Y185500D01*
X262100D01*
X262850Y184750D01*
X259850Y184000D02*X262850D01*
Y184750D02*Y184000D01*
X265400Y185500D02*X267650D01*
X264650Y184750D02*X265400Y185500D01*
X264650Y184750D02*Y183250D01*
X265400Y182500D01*
X267650D01*
X272150Y187750D02*X272900Y188500D01*
X275150D01*
X275900Y187750D01*
Y186250D01*
X272150Y182500D02*X275900Y186250D01*
X272150Y182500D02*X275900D01*
X277700Y183250D02*X278450Y182500D01*
X277700Y187750D02*Y183250D01*
Y187750D02*X278450Y188500D01*
X279950D01*
X280700Y187750D01*
Y183250D01*
X279950Y182500D02*X280700Y183250D01*
X278450Y182500D02*X279950D01*
X277700Y184000D02*X280700Y187000D01*
X283250Y182500D02*X284750D01*
X284000Y188500D02*Y182500D01*
X282500Y187000D02*X284000Y188500D01*
X286550Y183250D02*X287300Y182500D01*
X286550Y184750D02*Y183250D01*
Y184750D02*X287300Y185500D01*
X288800D01*
X289550Y184750D01*
Y183250D01*
X288800Y182500D02*X289550Y183250D01*
X287300Y182500D02*X288800D01*
X286550Y186250D02*X287300Y185500D01*
X286550Y187750D02*Y186250D01*
Y187750D02*X287300Y188500D01*
X288800D01*
X289550Y187750D01*
Y186250D01*
X288800Y185500D02*X289550Y186250D01*
X294050Y183250D02*X294800Y182500D01*
X294050Y187750D02*Y183250D01*
Y187750D02*X294800Y188500D01*
X296300D01*
X297050Y187750D01*
Y183250D01*
X296300Y182500D02*X297050Y183250D01*
X294800Y182500D02*X296300D01*
X294050Y184000D02*X297050Y187000D01*
X298850Y183250D02*X299600Y182500D01*
X298850Y184750D02*Y183250D01*
Y184750D02*X299600Y185500D01*
X301100D01*
X301850Y184750D01*
Y183250D01*
X301100Y182500D02*X301850Y183250D01*
X299600Y182500D02*X301100D01*
X298850Y186250D02*X299600Y185500D01*
X298850Y187750D02*Y186250D01*
Y187750D02*X299600Y188500D01*
X301100D01*
X301850Y187750D01*
Y186250D01*
X301100Y185500D02*X301850Y186250D01*
X303650D02*X304400D01*
X303650Y184750D02*X304400D01*
X306200Y183250D02*X306950Y182500D01*
X306200Y187750D02*Y183250D01*
Y187750D02*X306950Y188500D01*
X308450D01*
X309200Y187750D01*
Y183250D01*
X308450Y182500D02*X309200Y183250D01*
X306950Y182500D02*X308450D01*
X306200Y184000D02*X309200Y187000D01*
X313250Y188500D02*X314000Y187750D01*
X311750Y188500D02*X313250D01*
X311000Y187750D02*X311750Y188500D01*
X311000Y187750D02*Y183250D01*
X311750Y182500D01*
X313250Y185500D02*X314000Y184750D01*
X311000Y185500D02*X313250D01*
X311750Y182500D02*X313250D01*
X314000Y183250D01*
Y184750D02*Y183250D01*
X315800Y186250D02*X316550D01*
X315800Y184750D02*X316550D01*
X318350Y188500D02*X321350D01*
X318350D02*Y185500D01*
X319100Y186250D01*
X320600D01*
X321350Y185500D01*
Y183250D01*
X320600Y182500D02*X321350Y183250D01*
X319100Y182500D02*X320600D01*
X318350Y183250D02*X319100Y182500D01*
X323900D02*X325400D01*
X324650Y188500D02*Y182500D01*
X323150Y187000D02*X324650Y188500D01*
X330650D02*Y182500D01*
X329900Y188500D02*X332900D01*
X333650Y187750D01*
Y186250D01*
X332900Y185500D02*X333650Y186250D01*
X330650Y185500D02*X332900D01*
X335450Y188500D02*Y182500D01*
Y188500D02*X337700Y186250D01*
X339950Y188500D01*
Y182500D01*
X347450Y188500D02*X348200Y187750D01*
X345200Y188500D02*X347450D01*
X344450Y187750D02*X345200Y188500D01*
X344450Y187750D02*Y183250D01*
X345200Y182500D01*
X347450D01*
X348200Y183250D01*
Y184750D02*Y183250D01*
X347450Y185500D02*X348200Y184750D01*
X345950Y185500D02*X347450D01*
X350000Y188500D02*Y182500D01*
Y188500D02*X352250Y186250D01*
X354500Y188500D01*
Y182500D01*
X356300Y188500D02*X359300D01*
X357800D02*Y182500D01*
X363800Y188500D02*Y183250D01*
X364550Y182500D01*
X366050D01*
X366800Y183250D01*
Y188500D02*Y183250D01*
X368600Y188500D02*X371600D01*
X370100D02*Y182500D01*
X374150D02*X376400D01*
X373400Y183250D02*X374150Y182500D01*
X373400Y187750D02*Y183250D01*
Y187750D02*X374150Y188500D01*
X376400D01*
X200000Y202750D02*Y197500D01*
Y202750D02*X200750Y203500D01*
X203000D01*
X203750Y202750D01*
Y197500D01*
X200000Y200500D02*X203750D01*
X205550D02*Y198250D01*
X206300Y197500D01*
X207800D01*
X208550Y198250D01*
Y200500D02*Y198250D01*
X211100Y203500D02*Y198250D01*
X211850Y197500D01*
X210350Y201250D02*X211850D01*
X213350Y203500D02*Y197500D01*
Y199750D02*X214100Y200500D01*
X215600D01*
X216350Y199750D01*
Y197500D01*
X218150Y199750D02*Y198250D01*
Y199750D02*X218900Y200500D01*
X220400D01*
X221150Y199750D01*
Y198250D01*
X220400Y197500D02*X221150Y198250D01*
X218900Y197500D02*X220400D01*
X218150Y198250D02*X218900Y197500D01*
X223700Y199750D02*Y197500D01*
Y199750D02*X224450Y200500D01*
X225950D01*
X222950D02*X223700Y199750D01*
X227750Y201250D02*X228500D01*
X227750Y199750D02*X228500D01*
X233000Y203500D02*Y197500D01*
Y203500D02*X235250Y201250D01*
X237500Y203500D01*
Y197500D01*
X239300Y202000D02*Y201250D01*
Y199750D02*Y197500D01*
X241550Y200500D02*X243800D01*
X240800Y199750D02*X241550Y200500D01*
X240800Y199750D02*Y198250D01*
X241550Y197500D01*
X243800D01*
X245600Y203500D02*Y197500D01*
Y199750D02*X246350Y200500D01*
X247850D01*
X248600Y199750D01*
Y197500D01*
X252650Y200500D02*X253400Y199750D01*
X251150Y200500D02*X252650D01*
X250400Y199750D02*X251150Y200500D01*
X250400Y199750D02*Y198250D01*
X251150Y197500D01*
X253400Y200500D02*Y198250D01*
X254150Y197500D01*
X251150D02*X252650D01*
X253400Y198250D01*
X256700Y197500D02*X258950D01*
X255950Y198250D02*X256700Y197500D01*
X255950Y199750D02*Y198250D01*
Y199750D02*X256700Y200500D01*
X258200D01*
X258950Y199750D01*
X255950Y199000D02*X258950D01*
Y199750D02*Y199000D01*
X260750Y203500D02*Y198250D01*
X261500Y197500D01*
X266450Y203500D02*Y197500D01*
X265700Y203500D02*X268700D01*
X269450Y202750D01*
Y201250D01*
X268700Y200500D02*X269450Y201250D01*
X266450Y200500D02*X268700D01*
X272000Y197500D02*X274250D01*
X271250Y198250D02*X272000Y197500D01*
X271250Y199750D02*Y198250D01*
Y199750D02*X272000Y200500D01*
X273500D01*
X274250Y199750D01*
X271250Y199000D02*X274250D01*
Y199750D02*Y199000D01*
X276800Y203500D02*Y198250D01*
X277550Y197500D01*
X276050Y201250D02*X277550D01*
X279800Y197500D02*X282050D01*
X279050Y198250D02*X279800Y197500D01*
X279050Y199750D02*Y198250D01*
Y199750D02*X279800Y200500D01*
X281300D01*
X282050Y199750D01*
X279050Y199000D02*X282050D01*
Y199750D02*Y199000D01*
X284600Y199750D02*Y197500D01*
Y199750D02*X285350Y200500D01*
X286850D01*
X283850D02*X284600Y199750D01*
X289400Y197500D02*X291650D01*
X292400Y198250D01*
X291650Y199000D02*X292400Y198250D01*
X289400Y199000D02*X291650D01*
X288650Y199750D02*X289400Y199000D01*
X288650Y199750D02*X289400Y200500D01*
X291650D01*
X292400Y199750D01*
X288650Y198250D02*X289400Y197500D01*
X294950D02*X297200D01*
X294200Y198250D02*X294950Y197500D01*
X294200Y199750D02*Y198250D01*
Y199750D02*X294950Y200500D01*
X296450D01*
X297200Y199750D01*
X294200Y199000D02*X297200D01*
Y199750D02*Y199000D01*
X299750Y199750D02*Y197500D01*
Y199750D02*X300500Y200500D01*
X301250D01*
X302000Y199750D01*
Y197500D01*
X299000Y200500D02*X299750Y199750D01*
X200000Y218500D02*X203000D01*
X201500D02*Y212500D01*
X204800Y217000D02*Y216250D01*
Y214750D02*Y212500D01*
X207050Y218500D02*Y213250D01*
X207800Y212500D01*
X206300Y216250D02*X207800D01*
X209300Y218500D02*Y213250D01*
X210050Y212500D01*
X212300D02*X214550D01*
X211550Y213250D02*X212300Y212500D01*
X211550Y214750D02*Y213250D01*
Y214750D02*X212300Y215500D01*
X213800D01*
X214550Y214750D01*
X211550Y214000D02*X214550D01*
Y214750D02*Y214000D01*
X216350Y216250D02*X217100D01*
X216350Y214750D02*X217100D01*
X221600Y213250D02*X222350Y212500D01*
X221600Y217750D02*X222350Y218500D01*
X221600Y217750D02*Y213250D01*
X224150Y215500D02*Y213250D01*
X224900Y212500D01*
X226400D01*
X227150Y213250D01*
Y215500D02*Y213250D01*
X229700Y214750D02*Y212500D01*
Y214750D02*X230450Y215500D01*
X231200D01*
X231950Y214750D01*
Y212500D01*
X228950Y215500D02*X229700Y214750D01*
X233750Y218500D02*Y212500D01*
Y214750D02*X236000Y212500D01*
X233750Y214750D02*X235250Y216250D01*
X238550Y214750D02*Y212500D01*
Y214750D02*X239300Y215500D01*
X240050D01*
X240800Y214750D01*
Y212500D01*
X237800Y215500D02*X238550Y214750D01*
X242600D02*Y213250D01*
Y214750D02*X243350Y215500D01*
X244850D01*
X245600Y214750D01*
Y213250D01*
X244850Y212500D02*X245600Y213250D01*
X243350Y212500D02*X244850D01*
X242600Y213250D02*X243350Y212500D01*
X247400Y215500D02*Y213250D01*
X248150Y212500D01*
X248900D01*
X249650Y213250D01*
Y215500D02*Y213250D01*
X250400Y212500D01*
X251150D01*
X251900Y213250D01*
Y215500D02*Y213250D01*
X254450Y214750D02*Y212500D01*
Y214750D02*X255200Y215500D01*
X255950D01*
X256700Y214750D01*
Y212500D01*
X253700Y215500D02*X254450Y214750D01*
X258500Y218500D02*X259250Y217750D01*
Y213250D01*
X258500Y212500D02*X259250Y213250D01*
X263750Y215500D02*X266750D01*
X271250Y218500D02*Y212500D01*
Y218500D02*X274250D01*
X271250Y215500D02*X273500D01*
X278300D02*X279050Y214750D01*
X276800Y215500D02*X278300D01*
X276050Y214750D02*X276800Y215500D01*
X276050Y214750D02*Y213250D01*
X276800Y212500D01*
X279050Y215500D02*Y213250D01*
X279800Y212500D01*
X276800D02*X278300D01*
X279050Y213250D01*
X281600Y218500D02*Y212500D01*
Y213250D02*X282350Y212500D01*
X283850D01*
X284600Y213250D01*
Y214750D02*Y213250D01*
X283850Y215500D02*X284600Y214750D01*
X282350Y215500D02*X283850D01*
X281600Y214750D02*X282350Y215500D01*
X287150Y214750D02*Y212500D01*
Y214750D02*X287900Y215500D01*
X289400D01*
X286400D02*X287150Y214750D01*
X291200Y217000D02*Y216250D01*
Y214750D02*Y212500D01*
X293450Y215500D02*X295700D01*
X292700Y214750D02*X293450Y215500D01*
X292700Y214750D02*Y213250D01*
X293450Y212500D01*
X295700D01*
X299750Y215500D02*X300500Y214750D01*
X298250Y215500D02*X299750D01*
X297500Y214750D02*X298250Y215500D01*
X297500Y214750D02*Y213250D01*
X298250Y212500D01*
X300500Y215500D02*Y213250D01*
X301250Y212500D01*
X298250D02*X299750D01*
X300500Y213250D01*
X303800Y218500D02*Y213250D01*
X304550Y212500D01*
X303050Y216250D02*X304550D01*
X306050Y217000D02*Y216250D01*
Y214750D02*Y212500D01*
X307550Y214750D02*Y213250D01*
Y214750D02*X308300Y215500D01*
X309800D01*
X310550Y214750D01*
Y213250D01*
X309800Y212500D02*X310550Y213250D01*
X308300Y212500D02*X309800D01*
X307550Y213250D02*X308300Y212500D01*
X313100Y214750D02*Y212500D01*
Y214750D02*X313850Y215500D01*
X314600D01*
X315350Y214750D01*
Y212500D01*
X312350Y215500D02*X313100Y214750D01*
X320600Y218500D02*Y212500D01*
X322850Y218500D02*X323600Y217750D01*
Y213250D01*
X322850Y212500D02*X323600Y213250D01*
X319850Y212500D02*X322850D01*
X319850Y218500D02*X322850D01*
X326150Y214750D02*Y212500D01*
Y214750D02*X326900Y215500D01*
X328400D01*
X325400D02*X326150Y214750D01*
X332450Y215500D02*X333200Y214750D01*
X330950Y215500D02*X332450D01*
X330200Y214750D02*X330950Y215500D01*
X330200Y214750D02*Y213250D01*
X330950Y212500D01*
X333200Y215500D02*Y213250D01*
X333950Y212500D01*
X330950D02*X332450D01*
X333200Y213250D01*
X335750Y215500D02*Y213250D01*
X336500Y212500D01*
X337250D01*
X338000Y213250D01*
Y215500D02*Y213250D01*
X338750Y212500D01*
X339500D01*
X340250Y213250D01*
Y215500D02*Y213250D01*
X342050Y217000D02*Y216250D01*
Y214750D02*Y212500D01*
X344300Y214750D02*Y212500D01*
Y214750D02*X345050Y215500D01*
X345800D01*
X346550Y214750D01*
Y212500D01*
X343550Y215500D02*X344300Y214750D01*
X350600Y215500D02*X351350Y214750D01*
X349100Y215500D02*X350600D01*
X348350Y214750D02*X349100Y215500D01*
X348350Y214750D02*Y213250D01*
X349100Y212500D01*
X350600D01*
X351350Y213250D01*
X348350Y211000D02*X349100Y210250D01*
X350600D01*
X351350Y211000D01*
Y215500D02*Y211000D01*
M02*
