G04 start of page 7 for group -4062 idx -4062 *
G04 Title: (unknown), soldermask *
G04 Creator: pcb 20140316 *
G04 CreationDate: Sun 30 Dec 2018 08:06:51 PM GMT UTC *
G04 For: railfan *
G04 Format: Gerber/RS-274X *
G04 PCB-Dimensions (mil): 2200.00 1600.00 *
G04 PCB-Coordinate-Origin: lower left *
%MOIN*%
%FSLAX25Y25*%
%LNBOTTOMMASK*%
%ADD73R,0.0300X0.0300*%
%ADD72C,0.0600*%
%ADD71C,0.0860*%
%ADD70C,0.1270*%
%ADD69C,0.2997*%
%ADD68C,0.0001*%
%ADD67C,0.0660*%
G54D67*X110000Y138000D03*
X120000Y137000D03*
G54D68*G36*
X96700Y140300D02*Y133700D01*
X103300D01*
Y140300D01*
X96700D01*
G37*
G54D69*X27000Y133000D03*
G54D70*X68000Y104350D03*
X47500D03*
X27000D03*
G54D69*Y27000D03*
G54D70*X68000Y61850D03*
X47500D03*
X27000D03*
G54D68*G36*
X50200Y35300D02*Y26700D01*
X58800D01*
Y35300D01*
X50200D01*
G37*
G54D71*X74500Y31000D03*
G54D69*X193000Y27000D03*
G54D70*Y61850D03*
X172500D03*
X152000D03*
G54D69*X193000Y133000D03*
G54D70*Y104350D03*
X172500D03*
X152000D03*
G54D72*X159500Y130400D03*
G54D73*X158000Y128900D02*X161000D01*
G54D72*X159500Y123600D03*
G54D73*X158000Y125100D02*X161000D01*
G54D72*X168000Y123600D03*
G54D73*X166500Y125100D02*X169500D01*
G54D72*X168000Y130400D03*
G54D73*X166500Y128900D02*X169500D01*
M02*
