G04 start of page 3 for group 1 idx 1 *
G04 Title: (unknown), solder *
G04 Creator: pcb 20140316 *
G04 CreationDate: Sun 30 Dec 2018 08:06:51 PM GMT UTC *
G04 For: railfan *
G04 Format: Gerber/RS-274X *
G04 PCB-Dimensions (mil): 2200.00 1600.00 *
G04 PCB-Coordinate-Origin: lower left *
%MOIN*%
%FSLAX25Y25*%
%LNBOTTOM*%
%ADD46C,0.0480*%
%ADD45C,0.1010*%
%ADD44C,0.1285*%
%ADD43C,0.0380*%
%ADD42C,0.0120*%
%ADD41C,0.0280*%
%ADD40R,0.0300X0.0300*%
%ADD39C,0.0800*%
%ADD38C,0.1210*%
%ADD37C,0.2937*%
%ADD36C,0.0600*%
%ADD35C,0.0100*%
%ADD34C,0.0001*%
G54D34*G36*
X110002Y148000D02*X169000D01*
Y139142D01*
X168845Y139180D01*
X168500Y139207D01*
X168155Y139180D01*
X167818Y139099D01*
X167498Y138966D01*
X167203Y138785D01*
X166940Y138560D01*
X166717Y138300D01*
X161051D01*
X161000Y138304D01*
X160796Y138288D01*
X160597Y138240D01*
X160408Y138162D01*
X160234Y138055D01*
X160233Y138055D01*
X160078Y137922D01*
X160045Y137883D01*
X158617Y136455D01*
X158578Y136422D01*
X158445Y136266D01*
X158338Y136092D01*
X158260Y135903D01*
X158212Y135704D01*
X158212Y135704D01*
X158196Y135500D01*
X158200Y135449D01*
Y134191D01*
X157678Y133975D01*
X157142Y133646D01*
X156663Y133237D01*
X156254Y132758D01*
X155925Y132222D01*
X155684Y131640D01*
X155537Y131028D01*
X155488Y130400D01*
X155500Y130237D01*
X155509Y127243D01*
X155546Y127090D01*
X155583Y127000D01*
X155546Y126910D01*
X155509Y126757D01*
X155500Y126600D01*
X155505Y124800D01*
X139783D01*
X139560Y125060D01*
X139300Y125283D01*
Y133949D01*
X139304Y134000D01*
X139288Y134204D01*
X139288Y134204D01*
X139240Y134403D01*
X139162Y134592D01*
X139055Y134766D01*
X138922Y134922D01*
X138883Y134955D01*
X129955Y143883D01*
X129922Y143922D01*
X129766Y144055D01*
X129592Y144162D01*
X129403Y144240D01*
X129204Y144288D01*
X129204Y144288D01*
X129000Y144304D01*
X128949Y144300D01*
X110002D01*
Y148000D01*
G37*
G36*
X124700Y132217D02*Y126783D01*
X124440Y126560D01*
X124215Y126297D01*
X124034Y126002D01*
X123901Y125682D01*
X123820Y125345D01*
X123793Y125000D01*
X123820Y124655D01*
X123901Y124318D01*
X124034Y123998D01*
X124215Y123703D01*
X124440Y123440D01*
X124703Y123215D01*
X124998Y123034D01*
X125318Y122901D01*
X125655Y122820D01*
X126000Y122793D01*
X126345Y122820D01*
X126682Y122901D01*
X127002Y123034D01*
X127297Y123215D01*
X127560Y123440D01*
X127785Y123703D01*
X127966Y123998D01*
X128000Y124080D01*
X128034Y123998D01*
X128215Y123703D01*
X128440Y123440D01*
X128703Y123215D01*
X128998Y123034D01*
X129318Y122901D01*
X129655Y122820D01*
X130000Y122793D01*
X130345Y122820D01*
X130682Y122901D01*
X131002Y123034D01*
X131297Y123215D01*
X131560Y123440D01*
X131785Y123703D01*
X131966Y123998D01*
X132000Y124080D01*
X132034Y123998D01*
X132215Y123703D01*
X132440Y123440D01*
X132700Y123217D01*
Y121551D01*
X132696Y121500D01*
X132712Y121296D01*
Y121296D01*
X132724Y121248D01*
X132760Y121097D01*
X132838Y120908D01*
X132945Y120734D01*
X132945Y120733D01*
X133078Y120578D01*
X133117Y120545D01*
X133662Y120000D01*
X126000D01*
X114500Y108500D01*
X113613D01*
Y135853D01*
X113656Y135860D01*
X113768Y135897D01*
X113873Y135952D01*
X113968Y136022D01*
X114051Y136106D01*
X114119Y136202D01*
X114170Y136308D01*
X114318Y136716D01*
X114422Y137137D01*
X114484Y137567D01*
X114505Y138000D01*
X114484Y138433D01*
X114422Y138863D01*
X114318Y139284D01*
X114175Y139694D01*
X114122Y139800D01*
X114053Y139896D01*
X113970Y139981D01*
X113875Y140051D01*
X113769Y140106D01*
X113657Y140143D01*
X113613Y140151D01*
Y141700D01*
X128462D01*
X131862Y138300D01*
X124316D01*
X124293Y138395D01*
X124022Y139049D01*
X123652Y139653D01*
X123192Y140192D01*
X122653Y140652D01*
X122049Y141022D01*
X121395Y141293D01*
X120706Y141458D01*
X120000Y141514D01*
X119294Y141458D01*
X118605Y141293D01*
X117951Y141022D01*
X117347Y140652D01*
X116808Y140192D01*
X116348Y139653D01*
X115978Y139049D01*
X115707Y138395D01*
X115542Y137706D01*
X115486Y137000D01*
X115542Y136294D01*
X115707Y135605D01*
X115978Y134951D01*
X116348Y134347D01*
X116808Y133808D01*
X117347Y133348D01*
X117951Y132978D01*
X118605Y132707D01*
X119294Y132542D01*
X120000Y132486D01*
X120706Y132542D01*
X121395Y132707D01*
X122049Y132978D01*
X122653Y133348D01*
X123192Y133808D01*
X123652Y134347D01*
X123993Y134904D01*
X123901Y134682D01*
X123820Y134345D01*
X123793Y134000D01*
X123820Y133655D01*
X123901Y133318D01*
X124034Y132998D01*
X124215Y132703D01*
X124440Y132440D01*
X124700Y132217D01*
G37*
G36*
X113613Y108500D02*X110002D01*
Y133495D01*
X110433Y133516D01*
X110863Y133578D01*
X111284Y133682D01*
X111694Y133825D01*
X111800Y133878D01*
X111896Y133947D01*
X111981Y134030D01*
X112051Y134125D01*
X112106Y134231D01*
X112143Y134343D01*
X112163Y134460D01*
X112164Y134579D01*
X112146Y134696D01*
X112110Y134809D01*
X112057Y134915D01*
X111988Y135012D01*
X111905Y135096D01*
X111809Y135167D01*
X111704Y135221D01*
X111592Y135259D01*
X111475Y135278D01*
X111356Y135279D01*
X111239Y135261D01*
X111126Y135223D01*
X110855Y135124D01*
X110575Y135056D01*
X110289Y135014D01*
X110002Y135000D01*
Y141000D01*
X110289Y140986D01*
X110575Y140944D01*
X110855Y140876D01*
X111128Y140780D01*
X111239Y140742D01*
X111356Y140725D01*
X111474Y140725D01*
X111591Y140745D01*
X111703Y140782D01*
X111807Y140836D01*
X111902Y140906D01*
X111985Y140991D01*
X112054Y141087D01*
X112107Y141192D01*
X112143Y141305D01*
X112160Y141421D01*
X112159Y141539D01*
X112140Y141656D01*
X112125Y141700D01*
X113613D01*
Y140151D01*
X113540Y140163D01*
X113421Y140164D01*
X113304Y140146D01*
X113191Y140110D01*
X113085Y140057D01*
X112988Y139988D01*
X112904Y139905D01*
X112833Y139809D01*
X112779Y139704D01*
X112741Y139592D01*
X112722Y139475D01*
X112721Y139356D01*
X112739Y139239D01*
X112777Y139126D01*
X112876Y138855D01*
X112944Y138575D01*
X112986Y138289D01*
X113000Y138000D01*
X112986Y137711D01*
X112944Y137425D01*
X112876Y137145D01*
X112780Y136872D01*
X112742Y136761D01*
X112725Y136644D01*
X112725Y136526D01*
X112745Y136409D01*
X112782Y136297D01*
X112836Y136193D01*
X112906Y136098D01*
X112991Y136015D01*
X113087Y135946D01*
X113192Y135893D01*
X113305Y135857D01*
X113421Y135840D01*
X113539Y135841D01*
X113613Y135853D01*
Y108500D01*
G37*
G36*
X106387Y148000D02*X110002D01*
Y144300D01*
X106387D01*
Y148000D01*
G37*
G36*
X110002Y108500D02*X106387D01*
Y135849D01*
X106460Y135837D01*
X106579Y135836D01*
X106696Y135854D01*
X106809Y135890D01*
X106915Y135943D01*
X107012Y136012D01*
X107096Y136095D01*
X107167Y136191D01*
X107221Y136296D01*
X107259Y136408D01*
X107278Y136525D01*
X107279Y136644D01*
X107261Y136761D01*
X107223Y136874D01*
X107124Y137145D01*
X107056Y137425D01*
X107014Y137711D01*
X107000Y138000D01*
X107014Y138289D01*
X107056Y138575D01*
X107124Y138855D01*
X107220Y139128D01*
X107258Y139239D01*
X107275Y139356D01*
X107275Y139474D01*
X107255Y139591D01*
X107218Y139703D01*
X107164Y139807D01*
X107094Y139902D01*
X107009Y139985D01*
X106913Y140054D01*
X106808Y140107D01*
X106695Y140143D01*
X106579Y140160D01*
X106461Y140159D01*
X106387Y140147D01*
Y141548D01*
X106538Y141700D01*
X107871D01*
X107857Y141657D01*
X107837Y141540D01*
X107836Y141421D01*
X107854Y141304D01*
X107890Y141191D01*
X107943Y141085D01*
X108012Y140988D01*
X108095Y140904D01*
X108191Y140833D01*
X108296Y140779D01*
X108408Y140741D01*
X108525Y140722D01*
X108644Y140721D01*
X108761Y140739D01*
X108874Y140777D01*
X109145Y140876D01*
X109425Y140944D01*
X109711Y140986D01*
X110000Y141000D01*
X110002Y141000D01*
Y135000D01*
X110000Y135000D01*
X109711Y135014D01*
X109425Y135056D01*
X109145Y135124D01*
X108872Y135220D01*
X108761Y135258D01*
X108644Y135275D01*
X108526Y135275D01*
X108409Y135255D01*
X108297Y135218D01*
X108193Y135164D01*
X108098Y135094D01*
X108015Y135009D01*
X107946Y134913D01*
X107893Y134808D01*
X107857Y134695D01*
X107840Y134579D01*
X107841Y134461D01*
X107860Y134344D01*
X107897Y134232D01*
X107952Y134127D01*
X108022Y134032D01*
X108106Y133949D01*
X108202Y133881D01*
X108308Y133830D01*
X108716Y133682D01*
X109137Y133578D01*
X109567Y133516D01*
X110000Y133495D01*
X110002Y133495D01*
Y108500D01*
G37*
G36*
X106387D02*X98500D01*
X87000Y120000D01*
X51000D01*
Y148000D01*
X106387D01*
Y144300D01*
X106051D01*
X106000Y144304D01*
X105796Y144288D01*
X105597Y144240D01*
X105408Y144162D01*
X105234Y144055D01*
X105233Y144055D01*
X105078Y143922D01*
X105045Y143883D01*
X102661Y141499D01*
X96765Y141486D01*
X96535Y141431D01*
X96317Y141341D01*
X96116Y141217D01*
X95936Y141064D01*
X95783Y140884D01*
X95659Y140683D01*
X95569Y140465D01*
X95514Y140235D01*
X95500Y140000D01*
X95514Y133765D01*
X95569Y133535D01*
X95659Y133317D01*
X95783Y133116D01*
X95936Y132936D01*
X96116Y132783D01*
X96317Y132659D01*
X96535Y132569D01*
X96765Y132514D01*
X97000Y132500D01*
X103235Y132514D01*
X103465Y132569D01*
X103683Y132659D01*
X103884Y132783D01*
X104064Y132936D01*
X104217Y133116D01*
X104341Y133317D01*
X104431Y133535D01*
X104486Y133765D01*
X104500Y134000D01*
X104487Y139649D01*
X106387Y141548D01*
Y140147D01*
X106344Y140140D01*
X106232Y140103D01*
X106127Y140048D01*
X106032Y139978D01*
X105949Y139894D01*
X105881Y139798D01*
X105830Y139692D01*
X105682Y139284D01*
X105578Y138863D01*
X105516Y138433D01*
X105495Y138000D01*
X105516Y137567D01*
X105578Y137137D01*
X105682Y136716D01*
X105825Y136306D01*
X105878Y136200D01*
X105947Y136104D01*
X106030Y136019D01*
X106125Y135949D01*
X106231Y135894D01*
X106343Y135857D01*
X106387Y135849D01*
Y108500D01*
G37*
G36*
X131000Y95000D02*X115000Y111000D01*
X121000Y117000D01*
X137000Y101000D01*
X131000Y95000D01*
G37*
G36*
X106500Y35500D02*X115500D01*
Y12000D01*
X74492D01*
Y25484D01*
X74500Y25483D01*
X75363Y25551D01*
X76205Y25753D01*
X77005Y26084D01*
X77743Y26537D01*
X78401Y27099D01*
X78963Y27757D01*
X79416Y28495D01*
X79747Y29295D01*
X79949Y30137D01*
X80000Y31000D01*
X79949Y31863D01*
X79747Y32705D01*
X79416Y33505D01*
X78963Y34243D01*
X78401Y34901D01*
X77743Y35463D01*
X77005Y35916D01*
X76205Y36247D01*
X75363Y36449D01*
X74500Y36517D01*
X74492Y36516D01*
Y59100D01*
X74726Y59665D01*
X74985Y60744D01*
X75050Y61850D01*
X74985Y62956D01*
X74726Y64035D01*
X74492Y64600D01*
Y101600D01*
X74726Y102165D01*
X74985Y103244D01*
X75050Y104350D01*
X74985Y105456D01*
X74726Y106535D01*
X74492Y107100D01*
Y119000D01*
X86000D01*
X97500Y107500D01*
X116500D01*
X127000Y97000D01*
X122500Y92500D01*
Y36500D01*
X106500D01*
Y101500D01*
X105500D01*
Y31500D01*
X86500D01*
Y101500D01*
X85500D01*
Y30500D01*
X106500D01*
Y35500D01*
G37*
G36*
X74492Y107100D02*X74301Y107561D01*
X73721Y108507D01*
X73000Y109350D01*
X72157Y110071D01*
X71211Y110651D01*
X70185Y111076D01*
X69106Y111335D01*
X68000Y111422D01*
X67989Y111421D01*
Y119000D01*
X74492D01*
Y107100D01*
G37*
G36*
Y64600D02*X74301Y65061D01*
X73721Y66007D01*
X73000Y66850D01*
X72157Y67571D01*
X71211Y68151D01*
X70185Y68576D01*
X69106Y68835D01*
X68000Y68922D01*
X67989Y68921D01*
Y97279D01*
X68000Y97278D01*
X69106Y97365D01*
X70185Y97624D01*
X71211Y98049D01*
X72157Y98629D01*
X73000Y99350D01*
X73721Y100193D01*
X74301Y101139D01*
X74492Y101600D01*
Y64600D01*
G37*
G36*
Y12000D02*X67989D01*
Y54779D01*
X68000Y54778D01*
X69106Y54865D01*
X70185Y55124D01*
X71211Y55549D01*
X72157Y56129D01*
X73000Y56850D01*
X73721Y57693D01*
X74301Y58639D01*
X74492Y59100D01*
Y36516D01*
X73637Y36449D01*
X72795Y36247D01*
X71995Y35916D01*
X71257Y35463D01*
X70599Y34901D01*
X70037Y34243D01*
X69584Y33505D01*
X69253Y32705D01*
X69051Y31863D01*
X68983Y31000D01*
X69051Y30137D01*
X69253Y29295D01*
X69584Y28495D01*
X70037Y27757D01*
X70599Y27099D01*
X71257Y26537D01*
X71995Y26084D01*
X72795Y25753D01*
X73637Y25551D01*
X74492Y25484D01*
Y12000D01*
G37*
G36*
X67989D02*X54500D01*
Y25507D01*
X58735Y25514D01*
X58965Y25569D01*
X59183Y25659D01*
X59384Y25783D01*
X59564Y25936D01*
X59717Y26116D01*
X59841Y26317D01*
X59931Y26535D01*
X59986Y26765D01*
X60000Y27000D01*
X59986Y35235D01*
X59931Y35465D01*
X59841Y35683D01*
X59717Y35884D01*
X59564Y36064D01*
X59384Y36217D01*
X59183Y36341D01*
X58965Y36431D01*
X58735Y36486D01*
X58500Y36500D01*
X54500Y36493D01*
Y61003D01*
X54550Y61850D01*
X54500Y62697D01*
Y103503D01*
X54550Y104350D01*
X54500Y105197D01*
Y119000D01*
X67989D01*
Y111421D01*
X66894Y111335D01*
X65815Y111076D01*
X64789Y110651D01*
X63843Y110071D01*
X63000Y109350D01*
X62279Y108507D01*
X61699Y107561D01*
X61274Y106535D01*
X61015Y105456D01*
X60928Y104350D01*
X61015Y103244D01*
X61274Y102165D01*
X61699Y101139D01*
X62279Y100193D01*
X63000Y99350D01*
X63843Y98629D01*
X64789Y98049D01*
X65815Y97624D01*
X66894Y97365D01*
X67989Y97279D01*
Y68921D01*
X66894Y68835D01*
X65815Y68576D01*
X64789Y68151D01*
X63843Y67571D01*
X63000Y66850D01*
X62279Y66007D01*
X61699Y65061D01*
X61274Y64035D01*
X61015Y62956D01*
X60928Y61850D01*
X61015Y60744D01*
X61274Y59665D01*
X61699Y58639D01*
X62279Y57693D01*
X63000Y56850D01*
X63843Y56129D01*
X64789Y55549D01*
X65815Y55124D01*
X66894Y54865D01*
X67989Y54779D01*
Y12000D01*
G37*
G36*
X54500Y105197D02*X54485Y105456D01*
X54226Y106535D01*
X53801Y107561D01*
X53221Y108507D01*
X52500Y109350D01*
X51657Y110071D01*
X50711Y110651D01*
X49685Y111076D01*
X48606Y111335D01*
X47500Y111422D01*
X47489Y111421D01*
Y148000D01*
X50000D01*
Y119000D01*
X54500D01*
Y105197D01*
G37*
G36*
Y62697D02*X54485Y62956D01*
X54226Y64035D01*
X53801Y65061D01*
X53221Y66007D01*
X52500Y66850D01*
X51657Y67571D01*
X50711Y68151D01*
X49685Y68576D01*
X48606Y68835D01*
X47500Y68922D01*
X47489Y68921D01*
Y97279D01*
X47500Y97278D01*
X48606Y97365D01*
X49685Y97624D01*
X50711Y98049D01*
X51657Y98629D01*
X52500Y99350D01*
X53221Y100193D01*
X53801Y101139D01*
X54226Y102165D01*
X54485Y103244D01*
X54500Y103503D01*
Y62697D01*
G37*
G36*
Y12000D02*X47489D01*
Y54779D01*
X47500Y54778D01*
X48606Y54865D01*
X49685Y55124D01*
X50711Y55549D01*
X51657Y56129D01*
X52500Y56850D01*
X53221Y57693D01*
X53801Y58639D01*
X54226Y59665D01*
X54485Y60744D01*
X54500Y61003D01*
Y36493D01*
X50265Y36486D01*
X50035Y36431D01*
X49817Y36341D01*
X49616Y36217D01*
X49436Y36064D01*
X49283Y35884D01*
X49159Y35683D01*
X49069Y35465D01*
X49014Y35235D01*
X49000Y35000D01*
X49014Y26765D01*
X49069Y26535D01*
X49159Y26317D01*
X49283Y26116D01*
X49436Y25936D01*
X49616Y25783D01*
X49817Y25659D01*
X50035Y25569D01*
X50265Y25514D01*
X50500Y25500D01*
X54500Y25507D01*
Y12000D01*
G37*
G36*
X47489D02*X31705D01*
X31862Y12038D01*
X34142Y12982D01*
X36247Y14272D01*
X38124Y15876D01*
X39728Y17753D01*
X41018Y19858D01*
X41962Y22138D01*
X42539Y24539D01*
X42684Y27000D01*
X42539Y29461D01*
X41962Y31862D01*
X41018Y34142D01*
X39728Y36247D01*
X38124Y38124D01*
X36247Y39728D01*
X34142Y41018D01*
X31862Y41962D01*
X29461Y42539D01*
X27000Y42732D01*
X26989Y42732D01*
Y54779D01*
X27000Y54778D01*
X28106Y54865D01*
X29185Y55124D01*
X30211Y55549D01*
X31157Y56129D01*
X32000Y56850D01*
X32721Y57693D01*
X33301Y58639D01*
X33726Y59665D01*
X33985Y60744D01*
X34050Y61850D01*
X33985Y62956D01*
X33726Y64035D01*
X33301Y65061D01*
X32721Y66007D01*
X32000Y66850D01*
X31157Y67571D01*
X30211Y68151D01*
X29185Y68576D01*
X28106Y68835D01*
X27000Y68922D01*
X26989Y68921D01*
Y97279D01*
X27000Y97278D01*
X28106Y97365D01*
X29185Y97624D01*
X30211Y98049D01*
X31157Y98629D01*
X32000Y99350D01*
X32721Y100193D01*
X33301Y101139D01*
X33726Y102165D01*
X33985Y103244D01*
X34050Y104350D01*
X33985Y105456D01*
X33726Y106535D01*
X33301Y107561D01*
X32721Y108507D01*
X32000Y109350D01*
X31157Y110071D01*
X30211Y110651D01*
X29185Y111076D01*
X28106Y111335D01*
X27000Y111422D01*
X26989Y111421D01*
Y117268D01*
X27000Y117268D01*
X29461Y117461D01*
X31862Y118038D01*
X34142Y118982D01*
X36247Y120272D01*
X38124Y121876D01*
X39728Y123753D01*
X41018Y125858D01*
X41962Y128138D01*
X42539Y130539D01*
X42684Y133000D01*
X42539Y135461D01*
X41962Y137862D01*
X41018Y140142D01*
X39728Y142247D01*
X38124Y144124D01*
X36247Y145728D01*
X34142Y147018D01*
X31862Y147962D01*
X31705Y148000D01*
X47489D01*
Y111421D01*
X46394Y111335D01*
X45315Y111076D01*
X44289Y110651D01*
X43343Y110071D01*
X42500Y109350D01*
X41779Y108507D01*
X41199Y107561D01*
X40774Y106535D01*
X40515Y105456D01*
X40428Y104350D01*
X40515Y103244D01*
X40774Y102165D01*
X41199Y101139D01*
X41779Y100193D01*
X42500Y99350D01*
X43343Y98629D01*
X44289Y98049D01*
X45315Y97624D01*
X46394Y97365D01*
X47489Y97279D01*
Y68921D01*
X46394Y68835D01*
X45315Y68576D01*
X44289Y68151D01*
X43343Y67571D01*
X42500Y66850D01*
X41779Y66007D01*
X41199Y65061D01*
X40774Y64035D01*
X40515Y62956D01*
X40428Y61850D01*
X40515Y60744D01*
X40774Y59665D01*
X41199Y58639D01*
X41779Y57693D01*
X42500Y56850D01*
X43343Y56129D01*
X44289Y55549D01*
X45315Y55124D01*
X46394Y54865D01*
X47489Y54779D01*
Y12000D01*
G37*
G36*
X26989Y42732D02*X24539Y42539D01*
X22138Y41962D01*
X19858Y41018D01*
X17753Y39728D01*
X15876Y38124D01*
X14272Y36247D01*
X12982Y34142D01*
X12038Y31862D01*
X12000Y31705D01*
Y128295D01*
X12038Y128138D01*
X12982Y125858D01*
X14272Y123753D01*
X15876Y121876D01*
X17753Y120272D01*
X19858Y118982D01*
X22138Y118038D01*
X24539Y117461D01*
X26989Y117268D01*
Y111421D01*
X25894Y111335D01*
X24815Y111076D01*
X23789Y110651D01*
X22843Y110071D01*
X22000Y109350D01*
X21279Y108507D01*
X20699Y107561D01*
X20274Y106535D01*
X20015Y105456D01*
X19928Y104350D01*
X20015Y103244D01*
X20274Y102165D01*
X20699Y101139D01*
X21279Y100193D01*
X22000Y99350D01*
X22843Y98629D01*
X23789Y98049D01*
X24815Y97624D01*
X25894Y97365D01*
X26989Y97279D01*
Y68921D01*
X25894Y68835D01*
X24815Y68576D01*
X23789Y68151D01*
X22843Y67571D01*
X22000Y66850D01*
X21279Y66007D01*
X20699Y65061D01*
X20274Y64035D01*
X20015Y62956D01*
X19928Y61850D01*
X20015Y60744D01*
X20274Y59665D01*
X20699Y58639D01*
X21279Y57693D01*
X22000Y56850D01*
X22843Y56129D01*
X23789Y55549D01*
X24815Y55124D01*
X25894Y54865D01*
X26989Y54779D01*
Y42732D01*
G37*
G36*
X192989Y117268D02*X193000Y117268D01*
X195461Y117461D01*
X197862Y118038D01*
X200142Y118982D01*
X202247Y120272D01*
X204124Y121876D01*
X205728Y123753D01*
X207018Y125858D01*
X207962Y128138D01*
X208000Y128295D01*
Y31705D01*
X207962Y31862D01*
X207018Y34142D01*
X205728Y36247D01*
X204124Y38124D01*
X202247Y39728D01*
X200142Y41018D01*
X197862Y41962D01*
X195461Y42539D01*
X193000Y42732D01*
X192989Y42732D01*
Y54779D01*
X193000Y54778D01*
X194106Y54865D01*
X195185Y55124D01*
X196211Y55549D01*
X197157Y56129D01*
X198000Y56850D01*
X198721Y57693D01*
X199301Y58639D01*
X199726Y59665D01*
X199985Y60744D01*
X200050Y61850D01*
X199985Y62956D01*
X199726Y64035D01*
X199301Y65061D01*
X198721Y66007D01*
X198000Y66850D01*
X197157Y67571D01*
X196211Y68151D01*
X195185Y68576D01*
X194106Y68835D01*
X193000Y68922D01*
X192989Y68921D01*
Y97279D01*
X193000Y97278D01*
X194106Y97365D01*
X195185Y97624D01*
X196211Y98049D01*
X197157Y98629D01*
X198000Y99350D01*
X198721Y100193D01*
X199301Y101139D01*
X199726Y102165D01*
X199985Y103244D01*
X200050Y104350D01*
X199985Y105456D01*
X199726Y106535D01*
X199301Y107561D01*
X198721Y108507D01*
X198000Y109350D01*
X197157Y110071D01*
X196211Y110651D01*
X195185Y111076D01*
X194106Y111335D01*
X193000Y111422D01*
X192989Y111421D01*
Y117268D01*
G37*
G36*
X172489Y129237D02*X172492Y129238D01*
X172666Y129345D01*
X172822Y129478D01*
X172855Y129517D01*
X174383Y131045D01*
X174422Y131078D01*
X174555Y131233D01*
X174555Y131234D01*
X174662Y131408D01*
X174740Y131597D01*
X174788Y131796D01*
X174804Y132000D01*
X174800Y132051D01*
Y135217D01*
X175060Y135440D01*
X175285Y135703D01*
X175466Y135998D01*
X175599Y136318D01*
X175680Y136655D01*
X175700Y137000D01*
X175680Y137345D01*
X175599Y137682D01*
X175466Y138002D01*
X175285Y138297D01*
X175060Y138560D01*
X174797Y138785D01*
X174502Y138966D01*
X174182Y139099D01*
X173845Y139180D01*
X173500Y139207D01*
X173155Y139180D01*
X172818Y139099D01*
X172498Y138966D01*
X172489Y138961D01*
Y148000D01*
X188295D01*
X188138Y147962D01*
X185858Y147018D01*
X183753Y145728D01*
X181876Y144124D01*
X180272Y142247D01*
X178982Y140142D01*
X178038Y137862D01*
X177461Y135461D01*
X177268Y133000D01*
X177461Y130539D01*
X178038Y128138D01*
X178982Y125858D01*
X180272Y123753D01*
X181876Y121876D01*
X183753Y120272D01*
X185858Y118982D01*
X188138Y118038D01*
X190539Y117461D01*
X192989Y117268D01*
Y111421D01*
X191894Y111335D01*
X190815Y111076D01*
X189789Y110651D01*
X188843Y110071D01*
X188000Y109350D01*
X187279Y108507D01*
X186699Y107561D01*
X186274Y106535D01*
X186015Y105456D01*
X185928Y104350D01*
X186015Y103244D01*
X186274Y102165D01*
X186699Y101139D01*
X187279Y100193D01*
X188000Y99350D01*
X188843Y98629D01*
X189789Y98049D01*
X190815Y97624D01*
X191894Y97365D01*
X192989Y97279D01*
Y68921D01*
X191894Y68835D01*
X190815Y68576D01*
X189789Y68151D01*
X188843Y67571D01*
X188000Y66850D01*
X187279Y66007D01*
X186699Y65061D01*
X186274Y64035D01*
X186015Y62956D01*
X185928Y61850D01*
X186015Y60744D01*
X186274Y59665D01*
X186699Y58639D01*
X187279Y57693D01*
X188000Y56850D01*
X188843Y56129D01*
X189789Y55549D01*
X190815Y55124D01*
X191894Y54865D01*
X192989Y54779D01*
Y42732D01*
X190539Y42539D01*
X188138Y41962D01*
X185858Y41018D01*
X183753Y39728D01*
X181876Y38124D01*
X180272Y36247D01*
X178982Y34142D01*
X178038Y31862D01*
X177461Y29461D01*
X177268Y27000D01*
X177461Y24539D01*
X178038Y22138D01*
X178982Y19858D01*
X180272Y17753D01*
X181876Y15876D01*
X183753Y14272D01*
X185858Y12982D01*
X188138Y12038D01*
X188295Y12000D01*
X172489D01*
Y54779D01*
X172500Y54778D01*
X173606Y54865D01*
X174685Y55124D01*
X175711Y55549D01*
X176657Y56129D01*
X177500Y56850D01*
X178221Y57693D01*
X178801Y58639D01*
X179226Y59665D01*
X179485Y60744D01*
X179550Y61850D01*
X179485Y62956D01*
X179226Y64035D01*
X178801Y65061D01*
X178221Y66007D01*
X177500Y66850D01*
X176657Y67571D01*
X175711Y68151D01*
X174685Y68576D01*
X173606Y68835D01*
X172500Y68922D01*
X172489Y68921D01*
Y97279D01*
X172500Y97278D01*
X173606Y97365D01*
X174685Y97624D01*
X175711Y98049D01*
X176657Y98629D01*
X177500Y99350D01*
X178221Y100193D01*
X178801Y101139D01*
X179226Y102165D01*
X179485Y103244D01*
X179550Y104350D01*
X179485Y105456D01*
X179226Y106535D01*
X178801Y107561D01*
X178221Y108507D01*
X177500Y109350D01*
X176657Y110071D01*
X175711Y110651D01*
X174685Y111076D01*
X173606Y111335D01*
X172500Y111422D01*
X172489Y111421D01*
Y129237D01*
G37*
G36*
Y138961D02*X172203Y138785D01*
X171940Y138560D01*
X171715Y138297D01*
X171534Y138002D01*
X171401Y137682D01*
X171320Y137345D01*
X171293Y137000D01*
X171320Y136655D01*
X171401Y136318D01*
X171534Y135998D01*
X171715Y135703D01*
X171940Y135440D01*
X172200Y135217D01*
Y132538D01*
X171665Y132004D01*
X171575Y132222D01*
X171246Y132758D01*
X170837Y133237D01*
X170358Y133646D01*
X170000Y133866D01*
Y135388D01*
X170060Y135440D01*
X170285Y135703D01*
X170466Y135998D01*
X170599Y136318D01*
X170680Y136655D01*
X170700Y137000D01*
X170680Y137345D01*
X170599Y137682D01*
X170466Y138002D01*
X170285Y138297D01*
X170060Y138560D01*
X170000Y138612D01*
Y148000D01*
X172489D01*
Y138961D01*
G37*
G36*
X151989Y119000D02*X155662D01*
X156545Y118117D01*
X156578Y118078D01*
X156733Y117945D01*
X156734Y117945D01*
X156908Y117838D01*
X157097Y117760D01*
X157248Y117724D01*
X157296Y117712D01*
X157296D01*
X157500Y117696D01*
X157551Y117700D01*
X163349D01*
X163400Y117696D01*
X163604Y117712D01*
X163604Y117712D01*
X163803Y117760D01*
X163992Y117838D01*
X164166Y117945D01*
X164322Y118078D01*
X164355Y118117D01*
X165238Y119000D01*
X170000D01*
Y120134D01*
X170358Y120354D01*
X170837Y120763D01*
X171246Y121242D01*
X171575Y121778D01*
X171816Y122360D01*
X171963Y122972D01*
X171991Y123443D01*
X171991Y123443D01*
X172000Y123600D01*
X171991Y126757D01*
X171954Y126910D01*
X171917Y127000D01*
X171954Y127090D01*
X171991Y127243D01*
X172000Y127400D01*
X171995Y129103D01*
X172104Y129112D01*
X172104Y129112D01*
X172303Y129160D01*
X172489Y129237D01*
Y111421D01*
X171394Y111335D01*
X170315Y111076D01*
X169289Y110651D01*
X168343Y110071D01*
X167500Y109350D01*
X166779Y108507D01*
X166199Y107561D01*
X165774Y106535D01*
X165515Y105456D01*
X165428Y104350D01*
X165515Y103244D01*
X165774Y102165D01*
X166199Y101139D01*
X166779Y100193D01*
X167500Y99350D01*
X168343Y98629D01*
X169289Y98049D01*
X170315Y97624D01*
X171394Y97365D01*
X172489Y97279D01*
Y68921D01*
X171394Y68835D01*
X170315Y68576D01*
X169289Y68151D01*
X168343Y67571D01*
X167500Y66850D01*
X166779Y66007D01*
X166199Y65061D01*
X165774Y64035D01*
X165515Y62956D01*
X165428Y61850D01*
X165515Y60744D01*
X165774Y59665D01*
X166199Y58639D01*
X166779Y57693D01*
X167500Y56850D01*
X168343Y56129D01*
X169289Y55549D01*
X170315Y55124D01*
X171394Y54865D01*
X172489Y54779D01*
Y12000D01*
X151989D01*
Y54779D01*
X152000Y54778D01*
X153106Y54865D01*
X154185Y55124D01*
X155211Y55549D01*
X156157Y56129D01*
X157000Y56850D01*
X157721Y57693D01*
X158301Y58639D01*
X158726Y59665D01*
X158985Y60744D01*
X159050Y61850D01*
X158985Y62956D01*
X158726Y64035D01*
X158301Y65061D01*
X157721Y66007D01*
X157000Y66850D01*
X156157Y67571D01*
X155211Y68151D01*
X154185Y68576D01*
X153106Y68835D01*
X152000Y68922D01*
X151989Y68921D01*
Y97279D01*
X152000Y97278D01*
X153106Y97365D01*
X154185Y97624D01*
X155211Y98049D01*
X156157Y98629D01*
X157000Y99350D01*
X157721Y100193D01*
X158301Y101139D01*
X158726Y102165D01*
X158985Y103244D01*
X159050Y104350D01*
X158985Y105456D01*
X158726Y106535D01*
X158301Y107561D01*
X157721Y108507D01*
X157000Y109350D01*
X156157Y110071D01*
X155211Y110651D01*
X154185Y111076D01*
X153106Y111335D01*
X152000Y111422D01*
X151989Y111421D01*
Y119000D01*
G37*
G36*
X116500Y35500D02*X123500D01*
Y91500D01*
X136000Y104000D01*
X124000Y116000D01*
X127000Y119000D01*
X151989D01*
Y111421D01*
X150894Y111335D01*
X149815Y111076D01*
X148789Y110651D01*
X147843Y110071D01*
X147000Y109350D01*
X146279Y108507D01*
X145699Y107561D01*
X145274Y106535D01*
X145015Y105456D01*
X144928Y104350D01*
X145015Y103244D01*
X145274Y102165D01*
X145699Y101139D01*
X146279Y100193D01*
X147000Y99350D01*
X147843Y98629D01*
X148789Y98049D01*
X149815Y97624D01*
X150894Y97365D01*
X151989Y97279D01*
Y68921D01*
X150894Y68835D01*
X149815Y68576D01*
X148789Y68151D01*
X147843Y67571D01*
X147000Y66850D01*
X146279Y66007D01*
X145699Y65061D01*
X145274Y64035D01*
X145015Y62956D01*
X144928Y61850D01*
X145015Y60744D01*
X145274Y59665D01*
X145699Y58639D01*
X146279Y57693D01*
X147000Y56850D01*
X147843Y56129D01*
X148789Y55549D01*
X149815Y55124D01*
X150894Y54865D01*
X151989Y54779D01*
Y12000D01*
X116500D01*
Y35500D01*
G37*
G54D35*X135000Y120500D02*X134000Y121500D01*
X138000Y123500D02*X159500D01*
X157500Y119000D02*X156000Y120500D01*
X135000D02*X156000D01*
X168000Y123600D02*X163400Y119000D01*
X157500D01*
X168500Y137000D02*X161000D01*
X159500Y135500D01*
Y130400D01*
X168000D02*X171900D01*
X173500Y132000D01*
Y137000D01*
X120000D02*X132000D01*
X126000Y134000D02*Y125000D01*
X129000Y143000D02*X106000D01*
X138000Y134000D02*X129000Y143000D01*
X138000Y134000D02*Y123500D01*
X134000Y135000D02*X132000Y137000D01*
X130000Y131000D02*Y125000D01*
X106000Y143000D02*X100000Y137000D01*
X134000Y135000D02*Y121500D01*
G54D36*X110000Y138000D03*
X120000Y137000D03*
G54D34*G36*
X97000Y140000D02*Y134000D01*
X103000D01*
Y140000D01*
X97000D01*
G37*
G54D37*X27000Y133000D03*
G54D38*X68000Y104350D03*
X47500D03*
X27000D03*
G54D37*Y27000D03*
G54D38*X68000Y61850D03*
X47500D03*
X27000D03*
G54D34*G36*
X50500Y35000D02*Y27000D01*
X58500D01*
Y35000D01*
X50500D01*
G37*
G54D39*X74500Y31000D03*
G54D37*X193000Y27000D03*
G54D38*Y61850D03*
X172500D03*
X152000D03*
G54D37*X193000Y133000D03*
G54D38*Y104350D03*
X172500D03*
X152000D03*
G54D36*X159500Y130400D03*
G54D40*X158000Y128900D02*X161000D01*
G54D36*X159500Y123600D03*
G54D40*X158000Y125100D02*X161000D01*
G54D36*X168000Y123600D03*
G54D40*X166500Y125100D02*X169500D01*
G54D36*X168000Y130400D03*
G54D40*X166500Y128900D02*X169500D01*
G54D41*X134000Y125000D03*
X126000Y134000D03*
Y125000D03*
X130000D03*
Y131000D03*
X138000Y123500D03*
X155906Y135000D03*
X168500Y137000D03*
X173500D03*
X79500Y130000D03*
X124000Y96500D03*
X111000Y122500D03*
X102000D03*
X84500Y111000D03*
X87000Y113500D03*
X121500Y93890D03*
X128500Y100890D03*
X131000Y103500D03*
X138500Y34000D03*
X119000Y38500D03*
X110000D03*
X114500D03*
X134000Y34000D03*
X106500Y27000D03*
X90000Y33500D03*
X101000D03*
X143000Y34000D03*
G54D42*G54D43*G54D44*G54D45*G54D44*G54D45*G54D46*G54D44*G54D45*G54D44*G54D45*M02*
