G04 start of page 8 for group -4079 idx -4079 *
G04 Title: (unknown), topsilk *
G04 Creator: pcb 20140316 *
G04 CreationDate: Sun 30 Dec 2018 08:06:51 PM GMT UTC *
G04 For: railfan *
G04 Format: Gerber/RS-274X *
G04 PCB-Dimensions (mil): 2200.00 1600.00 *
G04 PCB-Coordinate-Origin: lower left *
%MOIN*%
%FSLAX25Y25*%
%LNTOPSILK*%
%ADD76C,0.0060*%
%ADD75C,0.0300*%
%ADD74C,0.0100*%
G54D74*X10500Y149500D02*X209500D01*
Y10500D01*
G54D75*X142500Y83000D02*X137000Y88500D01*
X142500Y83000D02*X137000Y77500D01*
X125000Y83000D02*X142500D01*
G54D74*X10500Y149500D02*Y10500D01*
G54D75*X78000Y83000D02*X95500D01*
X90000Y88500D01*
X95500Y83000D02*X90000Y77500D01*
G54D74*X10500Y10500D02*X209500D01*
G54D76*X73000Y14000D02*X77000D01*
X52000D02*X56000D01*
X54000Y16000D02*Y12000D01*
X103000Y144000D02*X102500Y144500D01*
X103000Y144000D02*X104500D01*
X105000Y144500D02*X104500Y144000D01*
X105000Y147500D02*Y144500D01*
Y147500D02*X104500Y148000D01*
X103000D02*X104500D01*
X103000D02*X102500Y147500D01*
Y146500D01*
X103000Y146000D02*X102500Y146500D01*
X103000Y146000D02*X104000D01*
X100800Y148000D02*Y144000D01*
X99300D02*X101300D01*
X99300D02*X98800Y144500D01*
Y145500D02*Y144500D01*
X99300Y146000D02*X98800Y145500D01*
X99300Y146000D02*X100800D01*
X96600Y144000D02*X97600D01*
X97100Y148000D02*Y144000D01*
X96600Y148000D02*X97600D01*
X95400Y147500D02*Y144500D01*
X94900Y144000D01*
X93900D02*X94900D01*
X93900D02*X93400Y144500D01*
Y147500D02*Y144500D01*
X93900Y148000D02*X93400Y147500D01*
X93900Y148000D02*X94900D01*
X95400Y147500D02*X94900Y148000D01*
X128000D02*Y144500D01*
X127500Y144000D01*
X126000D02*X127500D01*
X126000D02*X125500Y144500D01*
Y148000D02*Y144500D01*
Y146000D02*X128000D01*
X124300Y148000D02*Y144000D01*
X122300Y148000D02*X124300D01*
X119600Y146000D02*X121100D01*
X119100Y148000D02*X121100D01*
Y144000D01*
X119100D02*X121100D01*
X115900D02*X117900D01*
X115900D02*X115400Y144500D01*
Y145500D02*Y144500D01*
X115900Y146000D02*X115400Y145500D01*
X115900Y146000D02*X117400D01*
Y148000D02*Y144000D01*
Y146000D02*X115400Y148000D01*
X112200Y144000D02*X114200D01*
X113200Y148000D02*Y144000D01*
X152500Y48500D02*X153500D01*
X153000D02*Y44500D01*
X152500D02*X153500D01*
X154700Y48000D02*X155200Y48500D01*
X156700D01*
X157200Y48000D01*
Y47000D01*
X154700Y44500D02*X157200Y47000D01*
X154700Y44500D02*X157200D01*
X158900D02*X160400D01*
X158400Y45000D02*X158900Y44500D01*
X158400Y48000D02*Y45000D01*
Y48000D02*X158900Y48500D01*
X160400D01*
X161600Y46500D02*X163600D01*
X165300Y48500D02*Y44500D01*
X164800Y48500D02*X166800D01*
X167300Y48000D01*
Y47000D01*
X166800Y46500D02*X167300Y47000D01*
X165300Y46500D02*X166800D01*
X168500Y48500D02*Y44500D01*
X170000Y46000D01*
X171500Y44500D01*
Y48500D02*Y44500D01*
X172700Y48500D02*X174700D01*
X175200Y48000D01*
Y47000D01*
X174700Y46500D02*X175200Y47000D01*
X173200Y46500D02*X174700D01*
X173200Y48500D02*Y44500D01*
Y46500D02*X175200Y44500D01*
X176400Y48500D02*Y44500D01*
Y48500D02*X177900Y47000D01*
X179400Y48500D01*
Y44500D01*
X180600Y48000D02*Y45000D01*
Y48000D02*X181100Y48500D01*
X182100D01*
X182600Y48000D01*
Y45000D01*
X182100Y44500D02*X182600Y45000D01*
X181100Y44500D02*X182100D01*
X180600Y45000D02*X181100Y44500D01*
X183800Y48500D02*Y44500D01*
Y48500D02*Y48000D01*
X186300Y45500D01*
Y48500D02*Y44500D01*
X191100Y46500D02*Y45500D01*
X192100Y44500D01*
X193100Y45500D01*
Y46500D02*Y45500D01*
X194800Y44500D02*X195800D01*
X195300Y48500D02*Y44500D01*
X194300Y47500D02*X195300Y48500D01*
X197000Y44500D02*X197500D01*
X198700Y45000D02*X199200Y44500D01*
X198700Y48000D02*Y45000D01*
Y48000D02*X199200Y48500D01*
X200200D01*
X200700Y48000D01*
Y45000D01*
X200200Y44500D02*X200700Y45000D01*
X199200Y44500D02*X200200D01*
X198700Y45500D02*X200700Y47500D01*
X58500Y16000D02*Y13000D01*
X59500Y12000D01*
X60500Y13000D01*
Y16000D02*Y13000D01*
X61700Y12000D02*X63700D01*
X64200Y12500D01*
Y13500D02*Y12500D01*
X63700Y14000D02*X64200Y13500D01*
X62200Y14000D02*X63700D01*
X62200Y16000D02*Y12000D01*
X61700Y16000D02*X63700D01*
X64200Y15500D01*
Y14500D01*
X63700Y14000D02*X64200Y14500D01*
X65400Y15500D02*Y12000D01*
Y15500D02*X65900Y16000D01*
X67400D01*
X67900Y15500D01*
Y12000D01*
X65400Y14000D02*X67900D01*
X69100Y16000D02*X71100D01*
X70100D02*Y12000D01*
G54D74*X95000Y132000D02*X125000D01*
Y142000D02*Y132000D01*
X95000Y142000D02*Y132000D01*
X105000Y142000D02*Y132000D01*
X95000Y142000D02*X107000D01*
X113000D02*X125000D01*
X100157Y73220D02*X119843D01*
X100157Y100780D02*Y73220D01*
Y100780D02*X119843D01*
Y73220D01*
X121843Y71720D02*G75*G03X121843Y71720I-500J0D01*G01*
X103745Y119393D02*Y118607D01*
X109255Y119393D02*Y118607D01*
X112745Y119393D02*Y118607D01*
X118255Y119393D02*Y118607D01*
X94745Y119393D02*Y118607D01*
X100255Y119393D02*Y118607D01*
X93755Y23393D02*Y22607D01*
X88245Y23393D02*Y22607D01*
X102755Y23393D02*Y22607D01*
X97245Y23393D02*Y22607D01*
X44500Y18200D02*X84500D01*
X44500Y48200D02*X84500D01*
X44500Y43800D02*X84500D01*
X44500Y48200D02*Y18200D01*
X84500Y48200D02*Y18200D01*
X95107Y59255D02*X95893D01*
X95107Y53745D02*X95893D01*
X103755Y42393D02*Y41607D01*
X98245Y42393D02*Y41607D01*
X92755Y42393D02*Y41607D01*
X87245Y42393D02*Y41607D01*
X107245Y46850D02*Y46064D01*
X112755Y46850D02*Y46064D01*
X116245Y46850D02*Y46064D01*
X121755Y46850D02*Y46064D01*
X114107Y61255D02*X114893D01*
X114107Y55745D02*X114893D01*
X89274Y104830D02*X89830Y104274D01*
X93170Y108726D02*X93726Y108170D01*
X145755Y42393D02*Y41607D01*
X140245Y42393D02*Y41607D01*
X123862Y31350D02*X169138D01*
Y12650D01*
X123862D02*X169138D01*
X123862Y31350D02*Y12650D01*
X136755Y42393D02*Y41607D01*
X131245Y42393D02*Y41607D01*
X182500Y83100D02*G75*G03X182500Y83100I-10000J0D01*G01*
X167259Y132799D02*Y120201D01*
Y132799D02*X174741D01*
Y120201D01*
X167259D02*X174741D01*
X57500Y83100D02*G75*G03X57500Y83100I-10000J0D01*G01*
G54D76*X89500Y138230D02*X90655D01*
Y135535D01*
X90270Y135150D02*X90655Y135535D01*
X89885Y135150D02*X90270D01*
X89500Y135535D02*X89885Y135150D01*
X92734Y138230D02*X93119Y137845D01*
X91964Y138230D02*X92734D01*
X91579Y137845D02*X91964Y138230D01*
X91579Y137845D02*Y135535D01*
X91964Y135150D01*
X92734Y136690D02*X93119Y136305D01*
X91579Y136690D02*X92734D01*
X91964Y135150D02*X92734D01*
X93119Y135535D01*
Y136305D02*Y135535D01*
X55500Y138500D02*X57000D01*
Y135000D01*
X56500Y134500D02*X57000Y135000D01*
X56000Y134500D02*X56500D01*
X55500Y135000D02*X56000Y134500D01*
X58200Y138500D02*X60200D01*
X58200D02*Y136500D01*
X58700Y137000D01*
X59700D01*
X60200Y136500D01*
Y135000D01*
X59700Y134500D02*X60200Y135000D01*
X58700Y134500D02*X59700D01*
X58200Y135000D02*X58700Y134500D01*
X93000Y74000D02*Y70500D01*
X93500Y70000D01*
X94500D01*
X95000Y70500D01*
Y74000D02*Y70500D01*
X96700Y70000D02*X97700D01*
X97200Y74000D02*Y70000D01*
X96200Y73000D02*X97200Y74000D01*
X94278Y60800D02*X95433D01*
X93893Y61185D02*X94278Y60800D01*
X93893Y63495D02*Y61185D01*
Y63495D02*X94278Y63880D01*
X95433D01*
X96357Y60800D02*X98282Y62725D01*
Y63880D02*Y62725D01*
X96357Y63880D02*X98282D01*
X104770Y18255D02*Y17100D01*
Y18255D02*X107465D01*
X107850Y17870D02*X107465Y18255D01*
X107850Y17870D02*Y17485D01*
X107465Y17100D02*X107850Y17485D01*
X104770Y19564D02*X107850D01*
X104770Y20719D02*Y19179D01*
Y20719D02*X105155Y21104D01*
X105925D01*
X106310Y20719D02*X105925Y21104D01*
X106310Y20719D02*Y19564D01*
X107850Y23183D02*Y22413D01*
X104770Y22798D02*X107850D01*
X105540Y22028D02*X104770Y22798D01*
X45500Y85000D02*X47000D01*
Y81500D01*
X46500Y81000D02*X47000Y81500D01*
X46000Y81000D02*X46500D01*
X45500Y81500D02*X46000Y81000D01*
X48700D02*X49700D01*
X49200Y85000D02*Y81000D01*
X48200Y84000D02*X49200Y85000D01*
X78500Y54000D02*X80000D01*
Y50500D01*
X79500Y50000D02*X80000Y50500D01*
X79000Y50000D02*X79500D01*
X78500Y50500D02*X79000Y50000D01*
X81200Y53500D02*X81700Y54000D01*
X82700D01*
X83200Y53500D01*
Y50500D01*
X82700Y50000D02*X83200Y50500D01*
X81700Y50000D02*X82700D01*
X81200Y50500D02*X81700Y50000D01*
Y52000D02*X83200D01*
X87735Y49300D02*X88890D01*
X87350Y49685D02*X87735Y49300D01*
X87350Y51995D02*Y49685D01*
Y51995D02*X87735Y52380D01*
X88890D01*
X90199Y49300D02*X90969D01*
X90584Y52380D02*Y49300D01*
X89814Y51610D02*X90584Y52380D01*
X92278Y49300D02*X93048D01*
X92663Y52380D02*Y49300D01*
X91893Y51610D02*X92663Y52380D01*
X88850Y15880D02*X90390D01*
X90775Y15495D01*
Y14725D01*
X90390Y14340D02*X90775Y14725D01*
X89235Y14340D02*X90390D01*
X89235Y15880D02*Y12800D01*
Y14340D02*X90775Y12800D01*
X92084D02*X92854D01*
X92469Y15880D02*Y12800D01*
X91699Y15110D02*X92469Y15880D01*
X97850D02*X99390D01*
X99775Y15495D01*
Y14725D01*
X99390Y14340D02*X99775Y14725D01*
X98235Y14340D02*X99390D01*
X98235Y15880D02*Y12800D01*
Y14340D02*X99775Y12800D01*
X100699Y15495D02*X101084Y15880D01*
X102239D01*
X102624Y15495D01*
Y14725D01*
X100699Y12800D02*X102624Y14725D01*
X100699Y12800D02*X102624D01*
X95821Y126300D02*X96976D01*
X95436Y126685D02*X95821Y126300D01*
X95436Y128995D02*Y126685D01*
Y128995D02*X95821Y129380D01*
X96976D01*
X97900Y128995D02*X98285Y129380D01*
X99440D01*
X99825Y128995D01*
Y128225D01*
X97900Y126300D02*X99825Y128225D01*
X97900Y126300D02*X99825D01*
X97864Y105757D02*X99019D01*
X97479Y106142D02*X97864Y105757D01*
X97479Y108452D02*Y106142D01*
Y108452D02*X97864Y108837D01*
X99019D01*
X100328Y105757D02*X101098D01*
X100713Y108837D02*Y105757D01*
X99943Y108067D02*X100713Y108837D01*
X144000Y24000D02*Y23500D01*
X145000Y22500D01*
X146000Y23500D01*
Y24000D02*Y23500D01*
X145000Y22500D02*Y20000D01*
X147700D02*X148700D01*
X148200Y24000D02*Y20000D01*
X147200Y23000D02*X148200Y24000D01*
X132278Y49300D02*X133433D01*
X131893Y49685D02*X132278Y49300D01*
X131893Y51995D02*Y49685D01*
Y51995D02*X132278Y52380D01*
X133433D01*
X134357Y50840D02*X135897Y52380D01*
X134357Y50840D02*X136282D01*
X135897Y52380D02*Y49300D01*
X141385Y49150D02*X142540D01*
X141000Y49535D02*X141385Y49150D01*
X141000Y51845D02*Y49535D01*
Y51845D02*X141385Y52230D01*
X142540D01*
X143464D02*X145004D01*
X143464D02*Y50690D01*
X143849Y51075D01*
X144619D01*
X145004Y50690D01*
Y49535D01*
X144619Y49150D02*X145004Y49535D01*
X143849Y49150D02*X144619D01*
X143464Y49535D02*X143849Y49150D01*
X98192Y49300D02*X99347D01*
X97807Y49685D02*X98192Y49300D01*
X97807Y51995D02*Y49685D01*
Y51995D02*X98192Y52380D01*
X99347D01*
X100656Y49300D02*X101426D01*
X101041Y52380D02*Y49300D01*
X100271Y51610D02*X101041Y52380D01*
X102350Y51995D02*X102735Y52380D01*
X103890D01*
X104275Y51995D01*
Y51225D01*
X102350Y49300D02*X104275Y51225D01*
X102350Y49300D02*X104275D01*
X116385Y32650D02*X117540D01*
X116000Y33035D02*X116385Y32650D01*
X116000Y35345D02*Y33035D01*
Y35345D02*X116385Y35730D01*
X117540D01*
X118849Y32650D02*X119619D01*
X119234Y35730D02*Y32650D01*
X118464Y34960D02*X119234Y35730D01*
X120543Y33035D02*X120928Y32650D01*
X120543Y35345D02*Y33035D01*
Y35345D02*X120928Y35730D01*
X121698D01*
X122083Y35345D01*
Y33035D01*
X121698Y32650D02*X122083Y33035D01*
X120928Y32650D02*X121698D01*
X120543Y33420D02*X122083Y34960D01*
X108235Y32843D02*X109390D01*
X107850Y33228D02*X108235Y32843D01*
X107850Y35538D02*Y33228D01*
Y35538D02*X108235Y35923D01*
X109390D01*
X110314Y32843D02*X111854Y34383D01*
Y35538D02*Y34383D01*
X111469Y35923D02*X111854Y35538D01*
X110699Y35923D02*X111469D01*
X110314Y35538D02*X110699Y35923D01*
X110314Y35538D02*Y34768D01*
X110699Y34383D01*
X111854D01*
X104735Y126300D02*X105890D01*
X104350Y126685D02*X104735Y126300D01*
X104350Y128995D02*Y126685D01*
Y128995D02*X104735Y129380D01*
X105890D01*
X106814Y128995D02*X107199Y129380D01*
X107969D01*
X108354Y128995D01*
Y126685D01*
X107969Y126300D02*X108354Y126685D01*
X107199Y126300D02*X107969D01*
X106814Y126685D02*X107199Y126300D01*
Y127840D02*X108354D01*
X112885Y62650D02*X114040D01*
X112500Y63035D02*X112885Y62650D01*
X112500Y65345D02*Y63035D01*
Y65345D02*X112885Y65730D01*
X114040D01*
X114964Y63035D02*X115349Y62650D01*
X114964Y63805D02*Y63035D01*
Y63805D02*X115349Y64190D01*
X116119D01*
X116504Y63805D01*
Y63035D01*
X116119Y62650D02*X116504Y63035D01*
X115349Y62650D02*X116119D01*
X114964Y64575D02*X115349Y64190D01*
X114964Y65345D02*Y64575D01*
Y65345D02*X115349Y65730D01*
X116119D01*
X116504Y65345D01*
Y64575D01*
X116119Y64190D02*X116504Y64575D01*
X113735Y126300D02*X114890D01*
X113350Y126685D02*X113735Y126300D01*
X113350Y128995D02*Y126685D01*
Y128995D02*X113735Y129380D01*
X114890D01*
X116969D02*X117354Y128995D01*
X116199Y129380D02*X116969D01*
X115814Y128995D02*X116199Y129380D01*
X115814Y128995D02*Y126685D01*
X116199Y126300D01*
X116969Y127840D02*X117354Y127455D01*
X115814Y127840D02*X116969D01*
X116199Y126300D02*X116969D01*
X117354Y126685D01*
Y127455D02*Y126685D01*
X159000Y138500D02*X160500D01*
Y135000D01*
X160000Y134500D02*X160500Y135000D01*
X159500Y134500D02*X160000D01*
X159000Y135000D02*X159500Y134500D01*
X161700Y136500D02*X163700Y138500D01*
X161700Y136500D02*X164200D01*
X163700Y138500D02*Y134500D01*
X170000Y85100D02*X171500D01*
Y81600D01*
X171000Y81100D02*X171500Y81600D01*
X170500Y81100D02*X171000D01*
X170000Y81600D02*X170500Y81100D01*
X172700Y84600D02*X173200Y85100D01*
X174700D01*
X175200Y84600D01*
Y83600D01*
X172700Y81100D02*X175200Y83600D01*
X172700Y81100D02*X175200D01*
X161600Y124630D02*X163140D01*
X163525Y124245D01*
Y123475D01*
X163140Y123090D02*X163525Y123475D01*
X161985Y123090D02*X163140D01*
X161985Y124630D02*Y121550D01*
Y123090D02*X163525Y121550D01*
X164449Y124245D02*X164834Y124630D01*
X165604D01*
X165989Y124245D01*
Y121935D01*
X165604Y121550D02*X165989Y121935D01*
X164834Y121550D02*X165604D01*
X164449Y121935D02*X164834Y121550D01*
Y123090D02*X165989D01*
M02*
